<?xml version="1.0" encoding="utf-8"?>
<!-- Generator: Adobe Illustrator 23.0.3, SVG Export Plug-In . SVG Version: 6.00 Build 0)  -->
<svg version="1.1" id="Layer_1" xmlns="http://www.w3.org/2000/svg" xmlns:xlink="http://www.w3.org/1999/xlink" x="0px" y="0px"
	 viewBox="0 0 865.8 682.9" style="enable-background:new 0 0 865.8 682.9;" xml:space="preserve">
<style type="text/css">
	.st0{fill:#6A6329;}
	.st1{fill:#7F6127;}
	.st2{fill:#746E2D;}
	.st3{fill:#937A2E;}
	.st4{fill:#938230;}
	.st5{fill:#40B549;}
	.st6{fill:#DBDBDB;}
	.st7{fill:#B04499;}
	.st8{fill:#6ABD45;}
	.st9{fill:#4B3B97;}
	.st10{fill:#2D419A;}
	.st11{fill:#C7C7C7;}
	.st12{fill:#862784;}
	.st13{fill:#EBEBEB;}
	.st14{fill:#2F101C;}
	.st15{fill:#FFFFFF;}
	.st16{fill:#050406;}
	.st17{fill:#063E7F;}
	.st18{fill:#A6A6A6;}
	.st19{opacity:0.2;enable-background:new    ;}
	.st20{opacity:0.3;fill:#063E7F;enable-background:new    ;}
	.st21{fill:#F9B499;}
	.st22{fill:#F7A48B;}
	.st23{fill:#0A8B44;}
	.st24{opacity:0.3;fill:#FFFFFF;enable-background:new    ;}
	.st25{fill:#0A6B37;}
	.st26{fill:#E6E6E6;}
	.st27{opacity:0.2;fill:#279546;enable-background:new    ;}
	.st28{fill:#C14A9B;}
	.st29{fill:#1A8B43;}
</style>
<rect x="126.4" y="97.3" class="st0" width="176.5" height="10.5"/>
<rect x="139.8" y="107.8" class="st1" width="10.5" height="34.7"/>
<rect x="139.8" y="107.8" class="st2" width="10.5" height="10.7"/>
<rect x="279" y="107.8" class="st3" width="10.5" height="34.7"/>
<rect x="279" y="107.8" class="st4" width="10.5" height="10.7"/>
<rect x="171" y="30.5" class="st5" width="16.8" height="66.8"/>
<rect x="171" y="26.9" class="st6" width="16.8" height="7.3"/>
<rect x="171" y="43.7" class="st6" width="16.8" height="2.7"/>
<rect x="171" y="81.2" class="st6" width="18.9" height="7.3"/>
<rect x="187.8" y="19.4" class="st7" width="11.8" height="77.9"/>
<rect x="190.1" y="26.7" class="st8" width="7.1" height="30"/>
<rect x="245.5" y="26.8" transform="matrix(0.703 -0.7112 0.7112 0.703 27.8831 198.2946)" class="st9" width="11.8" height="77.9"/>
<rect x="251.9" y="54.7" transform="matrix(0.703 -0.7112 0.7112 0.703 26.2773 202.3682)" class="st6" width="7" height="30"/>
<rect x="199.6" y="38.1" class="st10" width="20" height="59.2"/>
<rect x="199.6" y="85.5" class="st11" width="20" height="5.5"/>
<rect x="199.6" y="79.8" class="st11" width="20" height="2.2"/>
<rect x="157.2" y="41.7" class="st12" width="13.8" height="55.6"/>
<rect x="157.2" y="86.2" class="st11" width="13.8" height="5.2"/>
<rect x="157.2" y="53.2" class="st11" width="13.8" height="5.2"/>
<rect x="157.2" y="61.9" class="st11" width="13.8" height="2"/>
<rect x="170.1" y="501.5" class="st13" width="38.9" height="16.4"/>
<rect x="148.4" y="522.3" class="st13" width="38.9" height="16.5"/>
<rect x="580.1" y="276.4" class="st13" width="38.9" height="16.5"/>
<rect x="558.5" y="255.7" class="st13" width="38.9" height="16.4"/>
<rect x="693.4" y="522.3" class="st13" width="38.9" height="16.5"/>
<rect x="332.3" y="379.7" class="st13" width="38.9" height="16.5"/>
<rect x="671.7" y="43.6" class="st13" width="38.9" height="16.5"/>
<rect x="693.4" y="64.3" class="st13" width="38.9" height="16.5"/>
<rect x="589.9" y="38.9" class="st14" width="146.5" height="163.4"/>
<rect x="599.6" y="48.6" class="st13" width="127.2" height="144.2"/>
<rect x="611.1" y="74.1" class="st15" width="44.8" height="53.1"/>
<path class="st16" d="M635.1,77.7c0,0.9-0.7,1.6-1.6,1.6s-1.6-0.7-1.6-1.6c0-0.9,0.7-1.6,1.6-1.6l0,0
	C634.4,76.1,635.1,76.8,635.1,77.7z"/>
<path class="st13" d="M619.6,84.7c4.5-0.3,9.1-0.4,13.6-0.4s9.1,0,13.6,0.4c-4.5,0.4-9.1,0.4-13.6,0.4S624.2,85.1,619.6,84.7z"/>
<path class="st13" d="M619.6,88.9c2.4-0.3,4.9-0.4,7.3-0.4c2.5,0,4.9,0.1,7.3,0.4c-2.4,0.3-4.9,0.4-7.3,0.4
	C624.5,89.4,622.1,89.2,619.6,88.9z"/>
<path class="st13" d="M619.6,93.1c6.3-0.6,12.6-0.6,18.9,0c-3.2,0.3-6.3,0.4-9.5,0.4C625.9,93.6,622.8,93.4,619.6,93.1z"/>
<path class="st13" d="M619.6,97.3c4-0.3,7.9-0.4,11.8-0.4s7.9,0.1,11.8,0.4c-3.9,0.3-7.9,0.4-11.8,0.4S623.6,97.7,619.6,97.3z"/>
<path class="st13" d="M619.6,101.5c3.4-0.3,6.8-0.4,10.3-0.4c3.4,0,6.9,0.1,10.3,0.4c-3.4,0.3-6.8,0.4-10.3,0.4
	C626.5,102,623,101.8,619.6,101.5z"/>
<path class="st13" d="M619.6,105.7c4.4-0.3,8.8-0.4,13.2-0.4c4.4-0.1,8.8,0,13.1,0.4c-4.4,0.4-8.8,0.4-13.1,0.4
	S624,106.1,619.6,105.7z"/>
<path class="st13" d="M619.6,109.9c5.7-0.6,11.3-0.6,17,0C631,110.5,625.3,110.5,619.6,109.9z"/>
<path class="st13" d="M619.6,114.1c4.5-0.3,9.1-0.4,13.6-0.4c4.5-0.1,9.1,0,13.6,0.4c-4.5,0.3-9.1,0.4-13.6,0.4
	S624.2,114.5,619.6,114.1z"/>
<path class="st13" d="M619.6,118.3c4.5-0.3,9.1-0.4,13.6-0.4s9.1,0.1,13.6,0.4c-4.5,0.3-9.1,0.4-13.6,0.4S624.2,118.7,619.6,118.3z"
	/>
<rect x="662.7" y="107.2" class="st15" width="53" height="62.9"/>
<path class="st16" d="M690.9,115.7c0,0.9-0.7,1.6-1.6,1.6s-1.6-0.7-1.6-1.6s0.7-1.6,1.6-1.6c0,0,0,0,0,0l0,0
	C690.1,114.1,690.9,114.8,690.9,115.7C690.9,115.7,690.9,115.7,690.9,115.7z"/>
<path class="st13" d="M670.2,122.9c3.9-0.6,7.9-0.6,11.8,0C678,123.5,674.1,123.5,670.2,122.9z"/>
<path class="st13" d="M670.2,127.7c5.1-0.6,10.2-0.6,15.2,0c-2.5,0.3-5.1,0.4-7.6,0.4C675.2,128.1,672.7,127.9,670.2,127.7z"/>
<path class="st13" d="M670.2,132.4c4.7-0.6,9.4-0.6,14.1,0C679.6,132.9,674.9,132.9,670.2,132.4z"/>
<path class="st13" d="M670.2,137.1c2.3-0.3,4.7-0.4,7-0.4c2.4,0,4.7,0.1,7.1,0.4c-2.3,0.3-4.7,0.4-7.1,0.4
	C674.9,137.6,672.5,137.4,670.2,137.1z"/>
<path class="st13" d="M670.2,141.9c4.1-0.6,8.2-0.6,12.3,0C678.4,142.4,674.2,142.4,670.2,141.9z"/>
<path class="st13" d="M670.2,146.6c2.6-0.3,5.2-0.4,7.8-0.4c2.6,0,5.2,0.1,7.8,0.4c-2.6,0.3-5.2,0.4-7.9,0.4
	C675.4,147,672.8,146.9,670.2,146.6z"/>
<path class="st13" d="M670.2,151.4c4.3-0.6,8.7-0.6,13,0C678.8,151.9,674.5,151.9,670.2,151.4z"/>
<path class="st13" d="M670.2,156.1c5.4-0.5,10.8-0.5,16.2,0C681,156.6,675.6,156.6,670.2,156.1z"/>
<path class="st13" d="M670.2,160.8c5.4-0.6,10.8-0.6,16.2,0C681,161.4,675.6,161.4,670.2,160.8z"/>
<path class="st13" d="M693.3,122.9c5.1-0.6,10.3-0.6,15.4,0C703.6,123.5,698.5,123.5,693.3,122.9z"/>
<path class="st13" d="M693.3,127.7c3.4-0.6,6.8-0.6,10.1,0c-1.7,0.3-3.4,0.4-5.1,0.4C696.7,128.1,695,127.9,693.3,127.7z"/>
<path class="st13" d="M693.3,132.4c4.8-0.6,9.7-0.6,14.5,0C703,132.9,698.2,132.9,693.3,132.4z"/>
<path class="st13" d="M693.3,137.1c2.3-0.3,4.7-0.4,7.1-0.4c2.4,0,4.7,0.1,7,0.4c-2.3,0.3-4.7,0.4-7,0.4
	C698.1,137.6,695.7,137.4,693.3,137.1z"/>
<path class="st13" d="M693.3,141.9c5.1-0.6,10.3-0.6,15.4,0C703.6,142.4,698.5,142.4,693.3,141.9z"/>
<path class="st13" d="M693.3,146.6c2-0.3,4.1-0.4,6.1-0.4c2.1,0,4.1,0.1,6.1,0.4c-2,0.3-4.1,0.4-6.1,0.4
	C697.4,147,695.4,146.9,693.3,146.6z"/>
<path class="st13" d="M693.3,151.4c4.8-0.6,9.7-0.6,14.5,0C703,151.9,698.2,151.9,693.3,151.4z"/>
<path class="st13" d="M693.3,156.1c3.7-0.5,7.5-0.5,11.2,0C700.8,156.6,697.1,156.6,693.3,156.1z"/>
<path class="st13" d="M693.3,160.8c3.6-0.6,7.2-0.6,10.8,0C700.5,161.4,696.9,161.4,693.3,160.8z"/>
<rect x="651.8" y="59.5" class="st17" width="27" height="27"/>
<path class="st16" d="M666.9,62.3c0,0.9-0.7,1.6-1.6,1.6c-0.9,0-1.6-0.7-1.6-1.6c0-0.9,0.7-1.6,1.6-1.6l0,0
	C666.2,60.7,666.9,61.4,666.9,62.3z"/>
<rect x="723" y="48.6" class="st11" width="3.6" height="144.4"/>
<polygon class="st11" points="628,512.4 682.4,512.4 713.6,357.1 663.7,334.2 "/>
<polygon class="st13" points="472.1,512.4 628,512.4 663.7,334.2 507.9,334.2 "/>
<rect x="655.9" y="429.1" class="st11" width="83.5" height="171.2"/>
<polygon class="st11" points="432.1,600.3 454.9,600.3 488.9,429.1 432.1,429.1 "/>
<rect x="610.1" y="429.1" class="st13" width="45.8" height="171.2"/>
<rect x="386.2" y="429.1" class="st13" width="45.9" height="171.2"/>
<rect x="432.1" y="512.4" class="st13" width="178" height="87.9"/>
<rect x="432.1" y="474.4" class="st13" width="178" height="38.3"/>
<path class="st11" d="M644.7,429.1l-17.3-0.2l-17.3-0.2h-0.4v0.4l-0.1,20v20c0,13.3-0.1,26.7,0,40.1c0.1,13.4,0,26.7,0.2,40.1
	s0.2,26.7,0.4,40.1c0.2-13.3,0.4-26.7,0.5-40.1c0.1-13.4,0.1-26.7,0.2-40.1s0-26.7,0-40.1v-20l-0.1-20l-0.4,0.4l17.3-0.2
	L644.7,429.1z"/>
<path class="st11" d="M432.1,429.1c-0.3,13.4-0.4,26.8-0.5,40.2l-0.1,40.2l0.2,40.2l0.2,20.1l0.3,20.1l0.3-20.1l0.2-20.1l0.1-40.2
	l-0.1-40.2C432.5,455.9,432.4,442.5,432.1,429.1z"/>
<path class="st11" d="M432.1,512.4c14.8,0.3,29.7,0.4,44.5,0.5l44.5,0.2l44.5-0.2l22.3-0.2l22.3-0.3l-22.3-0.3l-22.3-0.1l-44.5-0.1
	l-44.5,0.1C461.8,512,446.9,512.1,432.1,512.4z"/>
<path class="st11" d="M432.1,474.4c14.8,0.3,29.7,0.4,44.5,0.5l44.5,0.1l44.5-0.1l22.3-0.2l22.3-0.3l-22.3-0.3l-22.3-0.2l-44.4-0.2
	l-44.5,0.2C461.8,474,446.9,474.2,432.1,474.4z"/>
<polygon class="st11" points="707.7,600.3 708.8,614.1 711.4,646.2 723.5,646.2 726.1,614.1 727.3,600.3 "/>
<polygon class="st18" points="727.3,600.3 707.7,600.3 708.8,614.1 726.1,614.1 "/>
<polygon class="st11" points="623.2,600.3 624.3,614.1 627,646.2 639,646.2 641.7,614.1 642.8,600.3 "/>
<polygon class="st18" points="642.8,600.3 623.2,600.3 624.3,614.1 641.7,614.1 "/>
<polygon class="st11" points="483.1,600.3 484.2,614.1 486.9,646.2 499,646.2 501.6,614.1 502.7,600.3 "/>
<polygon class="st18" points="502.7,600.3 483.1,600.3 484.2,614.1 501.6,614.1 "/>
<polygon class="st11" points="398.6,600.3 399.8,614.1 402.4,646.2 414.5,646.2 417.1,614.1 418.2,600.3 "/>
<polygon class="st18" points="398.6,600.3 399.8,614.1 417.1,614.1 418.2,600.3 "/>
<polygon class="st19" points="651.7,585.8 692.4,585.8 691.2,574 653,574 "/>
<rect x="339.3" y="148.3" class="st15" width="228.8" height="164.6"/>
<path class="st11" d="M568.6,313.4H338.7V147.7h229.9V313.4z M339.8,312.3h227.6V148.8H339.9L339.8,312.3z"/>
<rect x="414.6" y="209.5" class="st20" width="133.9" height="16.6"/>
<rect x="358.7" y="232.5" class="st20" width="105.6" height="16.6"/>
<rect x="339.3" y="112.2" class="st17" width="228.8" height="36"/>
<rect x="414.6" y="209.5" class="st17" width="21.4" height="16.6"/>
<rect x="443" y="232.5" class="st17" width="21.4" height="16.6"/>
<path class="st17" d="M366.6,173.5c0.3-0.3,0.7-0.3,1-0.1c0.7,0.6,1.7,1,2.6,1.1c0.6,0,1.2-0.2,1.7-0.5c0.4-0.2,0.6-0.6,0.6-1
	c0-0.2,0-0.3-0.1-0.4c-0.1-0.2-0.2-0.3-0.4-0.4c-0.6-0.3-1.2-0.6-1.9-0.6l0,0c-0.6-0.1-1.2-0.3-1.8-0.5c-0.5-0.2-1-0.6-1.3-1.1
	c-0.2-0.4-0.3-0.8-0.3-1.2c0-0.8,0.4-1.5,1.1-2c0.7-0.5,1.5-0.8,2.4-0.7c1.1,0.1,2.1,0.5,3,1.1c0.3,0.2,0.4,0.6,0.2,1c0,0,0,0,0,0
	l0,0c-0.2,0.3-0.6,0.4-0.9,0.2c0,0,0,0,0,0l0,0c-0.6-0.5-1.4-0.8-2.2-0.9c-0.6,0-1.1,0.2-1.5,0.5c-0.3,0.2-0.5,0.5-0.5,0.9
	c0,0.1,0,0.3,0.1,0.4c0.1,0.1,0.2,0.3,0.4,0.4c0.5,0.3,1.1,0.5,1.7,0.6l0,0c0.7,0.1,1.3,0.3,1.9,0.6c0.6,0.3,1,0.6,1.4,1.1
	c0.2,0.3,0.3,0.7,0.4,1.2c0,0.9-0.5,1.7-1.2,2.1c-0.7,0.5-1.6,0.8-2.5,0.8c-1.3-0.1-2.5-0.6-3.5-1.4
	C366.4,174.3,366.3,173.9,366.6,173.5C366.5,173.5,366.6,173.5,366.6,173.5z"/>
<path class="st17" d="M401.6,167v8.1c0,0.4-0.4,0.8-0.8,0.8c-0.4,0-0.8-0.3-0.8-0.8v-5.8l-1.9,2.8c-0.1,0.2-0.4,0.3-0.6,0.3l0,0
	c-0.3,0-0.5-0.1-0.6-0.3l-2-2.8v5.8c0,0.4-0.3,0.8-0.8,0.8c-0.4,0-0.8-0.3-0.8-0.8l0,0V167c0-0.4,0.3-0.8,0.7-0.8c0,0,0,0,0,0l0,0
	c0.2,0,0.5,0.1,0.6,0.3l2.7,3.8l2.8-3.8c0.1-0.2,0.4-0.3,0.6-0.3l0,0C401.2,166.2,401.6,166.6,401.6,167z"/>
<path class="st17" d="M429,167.7h-2.2v7.4c0,0.4-0.3,0.7-0.7,0.7c0,0,0,0,0,0l0,0c-0.4,0-0.8-0.3-0.8-0.7c0,0,0,0,0,0l0,0v-7.4h-2.2
	c-0.4,0-0.8-0.3-0.8-0.8c0-0.4,0.3-0.7,0.7-0.8c0,0,0,0,0,0h5.9c0.4,0,0.7,0.3,0.8,0.7c0,0,0,0,0,0l0,0
	C429.8,167.4,429.4,167.7,429,167.7z"/>
<path class="st17" d="M459.7,167.4l-3.4,8.1c0,0,0,0.1-0.1,0.1l0,0l-0.1,0.1l0,0l-0.1,0.1l0,0c0,0-0.1,0.1-0.1,0.1h-0.5
	c-0.1,0-0.1,0-0.1-0.1l0,0l-0.1-0.1l0,0v-0.1l0,0v-0.1l-1.8-4.3l-1.8,4.3c0,0,0,0.1-0.1,0.1l0,0l-0.1,0.1l0,0l-0.1,0.1l0,0
	c0,0-0.1,0.1-0.1,0.1h-0.6c0,0-0.1,0-0.1-0.1l0,0l-0.1-0.1l0,0l-0.1-0.1l0,0l-0.1-0.1l-3.4-8.1c-0.2-0.4,0-0.8,0.4-1c0,0,0,0,0,0
	c0.4-0.2,0.8,0,1,0.4c0,0,0,0,0,0l2.7,6.4l1.8-4.2c0.1-0.3,0.4-0.5,0.7-0.5c0.3,0,0.6,0.2,0.7,0.5l1.8,4.2l2.7-6.4
	c0.2-0.4,0.6-0.6,1-0.4l0,0C460,166.6,460,167.1,459.7,167.4z"/>
<path class="st17" d="M484.7,167.7h-2.2v7.4c0,0.4-0.4,0.7-0.8,0.7c-0.4,0-0.6-0.3-0.7-0.7v-7.4h-2.2c-0.4,0-0.8-0.3-0.8-0.7
	c0,0,0,0,0,0l0,0c0-0.4,0.3-0.7,0.7-0.8h5.9c0.4,0,0.8,0.3,0.8,0.7c0,0,0,0,0,0C485.4,167.4,485.1,167.7,484.7,167.7z"/>
<path class="st17" d="M507,175.1V167c0-0.4,0.3-0.8,0.7-0.8c0,0,0,0,0,0h4.5c0.4,0.1,0.7,0.5,0.6,0.9c-0.1,0.3-0.3,0.6-0.6,0.6h-3.7
	v2.5h3.2c0.4,0,0.7,0.4,0.7,0.9c0,0.4-0.3,0.6-0.7,0.7h-3.2v3.3c0,0.4-0.4,0.8-0.8,0.8C507.3,175.9,507,175.6,507,175.1
	C507,175.2,507,175.1,507,175.1L507,175.1z"/>
<path class="st17" d="M534.2,173.5c0.3-0.3,0.7-0.3,1-0.1c0.7,0.6,1.7,1,2.6,1.1c0.6,0,1.2-0.2,1.7-0.5c0.4-0.2,0.6-0.6,0.6-1
	c0-0.2,0-0.3-0.1-0.4c-0.1-0.2-0.2-0.3-0.4-0.4c-0.6-0.3-1.2-0.6-1.9-0.6l0,0c-0.6-0.1-1.2-0.3-1.8-0.5c-0.5-0.2-1-0.6-1.3-1.1
	c-0.2-0.3-0.3-0.8-0.3-1.2c0-0.8,0.5-1.6,1.2-2c0.7-0.5,1.5-0.8,2.4-0.7c1.1,0.1,2.1,0.5,3,1.1c0.3,0.2,0.4,0.7,0.2,1c0,0,0,0,0,0
	c-0.2,0.3-0.6,0.5-1,0.3c0,0,0,0,0,0l0,0c-0.6-0.5-1.4-0.8-2.2-0.9c-0.6,0-1.1,0.2-1.5,0.5c-0.3,0.2-0.5,0.5-0.5,0.9
	c0,0.1,0,0.3,0.1,0.4c0.1,0.1,0.2,0.3,0.4,0.4c0.5,0.3,1.1,0.5,1.7,0.6l0,0c0.7,0.1,1.3,0.3,1.9,0.6c0.6,0.2,1,0.6,1.4,1.1
	c0.2,0.3,0.3,0.8,0.3,1.2c0,0.9-0.4,1.7-1.2,2.1c-0.7,0.5-1.6,0.8-2.6,0.8c-1.3-0.1-2.5-0.6-3.5-1.4
	C534.1,174.3,534,173.9,534.2,173.5L534.2,173.5z"/>
<path class="st16" d="M367.6,220.6c-0.1-0.1-0.1-0.2,0-0.3c0.1-0.1,0.2-0.1,0.3,0l0,0c0.3,0.3,0.7,0.5,1.2,0.5
	c0.9,0,1.6-0.7,1.6-1.6c0-0.4-0.2-0.8-0.5-1.1c-0.6-0.6-1.7-0.6-2.3,0c0,0,0,0,0,0c-0.1,0.1-0.2,0.1-0.3,0l0,0c0,0,0,0,0-0.1l0,0
	v-0.1l0,0l0.3-2.5c0-0.1,0-0.1,0.1-0.1c0,0,0.1,0,0.1,0h2.8c0.1,0,0.2,0.1,0.2,0.2c0,0,0,0,0,0c0,0.1-0.1,0.2-0.2,0.2l0,0h-2.7
	l-0.3,1.7c0.3-0.2,0.6-0.3,1-0.3c1.1,0,2.1,0.9,2.1,2.1c0,1.1-0.9,2.1-2.1,2.1c-0.6,0-1.1-0.2-1.5-0.6l0,0L367.6,220.6z"/>
<path class="st16" d="M395.9,216.4c0.4-0.8,1.2-1.3,2.1-1.3c0.1,0,0.2,0.1,0.2,0.2l0,0c0,0.1-0.1,0.2-0.2,0.2
	c-0.8,0-1.4,0.5-1.8,1.2c-0.2,0.4-0.4,0.8-0.4,1.2c0.7-0.8,2-0.9,2.8-0.1c0.8,0.7,0.9,2,0.1,2.8c-0.7,0.8-2,0.9-2.8,0.2
	c-0.4-0.4-0.7-0.9-0.7-1.4v-0.4C395.3,218,395.5,217.2,395.9,216.4z M395.8,219.2c0,0,0,0.1,0,0.1v0.1c0.1,0.9,0.8,1.6,1.7,1.5
	c0.9-0.1,1.6-0.8,1.5-1.7c-0.1-0.9-0.8-1.6-1.7-1.5C396.5,217.7,395.8,218.4,395.8,219.2L395.8,219.2z"/>
<path class="st16" d="M424.5,220.9l2.3-5.4h-3c-0.1,0-0.2-0.1-0.2-0.2c0-0.1,0.1-0.2,0.2-0.2h3.2c0,0,0.1,0,0.1,0
	c0.1,0,0.1,0.1,0.1,0.1c0,0,0,0,0,0.1c0,0,0,0.1,0,0.1l-2.3,5.6c0,0.1-0.1,0.1-0.2,0.1c0,0-0.1,0-0.1,0
	C424.5,221.1,424.5,221,424.5,220.9z"/>
<path class="st16" d="M453.1,215.1c0.7,0,1.3,0.5,1.3,1.2c0,0.4-0.2,0.8-0.5,1.1c1,0.4,1.5,1.6,1.1,2.6c-0.4,1-1.6,1.5-2.6,1.1
	s-1.5-1.6-1.1-2.6c0.2-0.5,0.6-0.9,1.1-1.1c-0.3-0.2-0.5-0.6-0.5-1C451.8,215.7,452.4,215.1,453.1,215.1
	C453.1,215.1,453.1,215.1,453.1,215.1L453.1,215.1z M453.1,220.8c0.9,0,1.6-0.7,1.6-1.5c0,0,0,0,0,0l0,0c0-0.9-0.7-1.6-1.6-1.6
	c-0.8,0-1.5,0.6-1.6,1.3c0,0.1,0,0.2,0,0.3C451.5,220.1,452.2,220.8,453.1,220.8L453.1,220.8z M453.1,217.2c0.5,0,0.9-0.4,0.9-0.9
	c0-0.5-0.4-0.9-0.9-0.9l0,0c-0.5,0-0.8,0.4-0.8,0.9l0,0C452.3,216.8,452.6,217.2,453.1,217.2L453.1,217.2z"/>
<path class="st16" d="M481.6,215.1c1,0,1.9,0.8,2,1.8l0,0v0.5c0,0.8-0.2,1.7-0.6,2.4c-0.4,0.8-1.2,1.3-2.1,1.3l0,0
	c-0.1,0-0.2-0.1-0.2-0.2c0,0,0,0,0,0c0-0.1,0.1-0.1,0.2-0.2c0.8,0,1.4-0.5,1.8-1.1c0.2-0.4,0.4-0.8,0.4-1.2c-0.7,0.8-2,0.9-2.8,0.2
	s-0.9-2-0.2-2.8C480.4,215.2,481,215,481.6,215.1L481.6,215.1z M483.2,217.1c0-0.9-0.7-1.6-1.6-1.6c-0.9,0-1.6,0.7-1.6,1.6
	c0,0.9,0.7,1.6,1.6,1.6C482.5,218.7,483.2,218,483.2,217.1C483.2,217.1,483.2,217.1,483.2,217.1z"/>
<path class="st16" d="M507.6,215.7l-0.9,0.5h-0.1c-0.1,0-0.1,0-0.2-0.1c-0.1-0.1,0-0.2,0.1-0.3c0,0,0,0,0,0l0,0l1.1-0.7
	c0.1-0.1,0.2,0,0.3,0.1c0,0,0,0,0,0c0,0.1,0,0.1,0,0.2v5.7c0,0.1-0.1,0.2-0.2,0.2c0,0,0,0,0,0c-0.1,0-0.2-0.1-0.2-0.2c0,0,0,0,0,0
	L507.6,215.7z"/>
<path class="st16" d="M509.6,218.1c0-0.8,0.2-1.5,0.6-2.1c0.3-0.5,0.9-0.9,1.5-0.9c0.6,0,1.2,0.4,1.5,0.9c0.4,0.6,0.6,1.4,0.6,2.1
	c0,0.8-0.2,1.5-0.6,2.1c-0.4,0.8-1.4,1.1-2.3,0.7c-0.3-0.2-0.6-0.4-0.7-0.7C509.8,219.6,509.6,218.9,509.6,218.1z M510,218.1
	c0,0.7,0.2,1.3,0.5,1.9c0.2,0.4,0.7,0.7,1.1,0.7c0.5,0,0.9-0.3,1.2-0.7c0.7-1.2,0.7-2.6,0-3.8c-0.2-0.4-0.7-0.7-1.2-0.7
	c-0.5,0-0.9,0.3-1.1,0.7C510.2,216.8,510,217.5,510,218.1z"/>
<path class="st16" d="M536.7,215.7l-0.9,0.5h-0.1c-0.1,0-0.2-0.1-0.2-0.2c0-0.1,0-0.1,0.1-0.1l0,0l1.2-0.7c0.1,0,0.2,0,0.3,0.1
	c0,0.1,0,0.1,0,0.2v5.7c0,0.1-0.1,0.2-0.2,0.2c-0.1,0-0.2-0.1-0.2-0.2L536.7,215.7z"/>
<path class="st16" d="M539.6,215.7l-0.9,0.5h-0.1c-0.1,0-0.1,0-0.2-0.1c-0.1-0.1,0-0.2,0.1-0.3c0,0,0,0,0,0l0,0l1.2-0.7
	c0.1-0.1,0.2,0,0.3,0.1c0,0,0,0,0,0c0,0.1,0,0.1,0,0.2v5.7c0,0.1-0.1,0.2-0.2,0.2l0,0c-0.1,0-0.2-0.1-0.2-0.2L539.6,215.7z"/>
<path class="st16" d="M453.5,192.3l-0.9,0.5c0,0-0.1,0-0.1,0c-0.1,0-0.1,0-0.2-0.1c-0.1-0.1,0-0.2,0.1-0.3c0,0,0,0,0,0l0,0l1.2-0.7
	c0.1-0.1,0.2,0,0.3,0.1c0,0,0,0,0,0l0,0c0,0,0,0.1,0,0.1v5.6c0,0.1-0.1,0.2-0.2,0.2c0,0,0,0,0,0l0,0c-0.1,0-0.2-0.1-0.2-0.2
	L453.5,192.3z"/>
<path class="st16" d="M479.7,197.4l2.9-2.6c0.3-0.3,0.5-0.7,0.5-1.1c0-0.9-0.7-1.6-1.6-1.6c0,0,0,0,0,0c-0.4,0-0.8,0.1-1.1,0.4
	l-0.3,0.3c-0.1,0.1-0.2,0.1-0.3,0l0,0c-0.1-0.1-0.1-0.2,0-0.3c0,0,0,0,0,0l0,0l0.3-0.3c0.4-0.3,0.9-0.5,1.4-0.5c1.1,0,2,0.9,2,2
	c0,0.6-0.2,1.1-0.7,1.5l-2.5,2.2h2.9c0.1,0,0.2,0.1,0.2,0.2l0,0c0,0.1-0.1,0.2-0.2,0.2h-3.5c-0.1,0-0.1,0-0.2-0.1
	C479.6,197.7,479.6,197.5,479.7,197.4L479.7,197.4z"/>
<path class="st16" d="M511.9,192.1l-1.6,1.6c0.4,0.1,0.7,0.3,1,0.6c0.4,0.4,0.6,0.9,0.6,1.5c0,0.6-0.2,1.1-0.6,1.5
	c-0.4,0.4-0.9,0.6-1.5,0.6c-0.5,0-1.1-0.2-1.5-0.6c-0.1-0.1-0.1-0.2,0-0.3c0.1-0.1,0.2-0.1,0.3,0c0.6,0.6,1.7,0.6,2.3,0
	c0.3-0.3,0.5-0.7,0.5-1.2c0-0.4-0.2-0.8-0.5-1.1c-0.3-0.3-0.7-0.5-1.2-0.5c-0.1,0-0.1,0-0.2-0.1l0,0c-0.1-0.1-0.1-0.2,0-0.3
	c0,0,0,0,0,0l0,0l1.5-1.6h-2.3c-0.1,0-0.2-0.1-0.2-0.2c0,0,0,0,0,0l0,0c0-0.1,0.1-0.2,0.2-0.2c0,0,0,0,0,0h2.9
	c0.1,0,0.2,0.1,0.2,0.2c0,0,0,0,0,0l0,0L511.9,192.1L511.9,192.1z"/>
<path class="st16" d="M539,196.5h-3.3c0,0-0.1,0-0.1,0c-0.1-0.1-0.1-0.2,0-0.3c0,0,0,0,0,0l0,0l3.5-4.4l0,0c0.1-0.1,0.2-0.1,0.3,0
	c0,0,0,0,0,0l0,0c0,0,0.1,0.1,0.1,0.1l0,0v4.2h0.4c0.1,0,0.2,0.1,0.2,0.2c0,0,0,0,0,0c0,0.1-0.1,0.2-0.2,0.2l0,0h-0.4v1.1
	c0,0.1-0.1,0.2-0.2,0.2l0,0l0,0c-0.1,0-0.2-0.1-0.2-0.2c0,0,0,0,0,0L539,196.5z M539,196.1v-3.6l-2.9,3.6H539z"/>
<path class="st16" d="M366.7,261.5l-0.9,0.5h-0.1c-0.1,0-0.1,0-0.2-0.1c-0.1-0.1,0-0.2,0.1-0.3c0,0,0,0,0,0l0,0l1.1-0.7
	c0.1-0.1,0.2,0,0.3,0.1c0,0,0,0,0,0c0,0.1,0,0.1,0,0.2v5.6c0,0.1-0.1,0.2-0.2,0.2l0,0c-0.1,0-0.2-0.1-0.2-0.2L366.7,261.5z"/>
<path class="st16" d="M370.7,260.9c1,0,1.9,0.8,2,1.8l0,0v0.5c0,0.8-0.2,1.7-0.6,2.4c-0.4,0.8-1.2,1.3-2.1,1.3l0,0
	c-0.1,0-0.2-0.1-0.2-0.2c0-0.1,0.1-0.2,0.2-0.2c0,0,0,0,0,0l0,0c0.8,0,1.4-0.5,1.8-1.2c0.2-0.4,0.4-0.7,0.4-1.1
	c-0.7,0.8-2,0.9-2.8,0.2s-0.9-2-0.2-2.8C369.6,261.1,370.1,260.9,370.7,260.9L370.7,260.9z M372.3,262.9c0-0.9-0.7-1.6-1.6-1.6
	c-0.9,0-1.6,0.7-1.6,1.6c0,0.9,0.7,1.6,1.6,1.6C371.6,264.5,372.3,263.8,372.3,262.9L372.3,262.9z"/>
<path class="st16" d="M392.6,266.6l2.9-2.6c0.3-0.3,0.5-0.7,0.5-1.1c0-0.9-0.7-1.6-1.6-1.6c-0.4,0-0.8,0.1-1,0.4L393,262
	c-0.1,0.1-0.2,0.1-0.3,0l0,0c-0.1-0.1-0.1-0.2,0-0.3l0,0l0.3-0.3c0.4-0.3,0.9-0.5,1.4-0.5c1.1,0,2,0.9,2,2c0,0.6-0.2,1.1-0.6,1.5
	l-2.5,2.2h2.9c0.1,0,0.2,0.1,0.2,0.2c0,0,0,0,0,0c0,0.1-0.1,0.2-0.2,0.2h-3.5c-0.1,0-0.1,0-0.2-0.1
	C392.4,266.9,392.4,266.8,392.6,266.6L392.6,266.6z"/>
<path class="st16" d="M397.8,264c0-0.8,0.2-1.5,0.6-2.1c0.5-0.8,1.5-1.2,2.4-0.7c0.3,0.2,0.5,0.4,0.7,0.7c0.4,0.6,0.6,1.4,0.6,2.1
	c0,0.8-0.2,1.5-0.6,2.1c-0.4,0.8-1.5,1.2-2.3,0.8c0,0,0,0,0,0c-0.3-0.2-0.6-0.4-0.8-0.8C398,265.5,397.8,264.8,397.8,264z
	 M398.3,264c0,0.7,0.2,1.3,0.5,1.9c0.2,0.4,0.7,0.7,1.2,0.7c0.5,0,0.9-0.3,1.2-0.7c0.7-1.2,0.7-2.6,0-3.8c-0.2-0.4-0.7-0.7-1.2-0.7
	c-0.5,0-0.9,0.3-1.2,0.7C398.4,262.7,398.2,263.3,398.3,264z"/>
<path class="st16" d="M422.2,266.6l2.9-2.6c0.3-0.3,0.5-0.7,0.5-1.1c0-0.9-0.7-1.6-1.6-1.6c-0.4,0-0.8,0.1-1.1,0.4l-0.3,0.3
	c-0.1,0.1-0.2,0.1-0.3,0l0,0c-0.1-0.1-0.1-0.2,0-0.3l0,0l0.3-0.3c0.4-0.3,0.9-0.5,1.4-0.5c1.1,0,2,0.9,2,2c0,0.6-0.2,1.1-0.7,1.5
	l-2.4,2.2h2.9c0.1,0,0.2,0.1,0.2,0.2c0,0.1-0.1,0.2-0.2,0.2h-3.5c-0.1,0-0.1,0-0.2-0.1C422.1,266.9,422.1,266.8,422.2,266.6
	C422.2,266.7,422.2,266.6,422.2,266.6z"/>
<path class="st16" d="M428.4,261.5l-0.9,0.5h-0.1c-0.1,0-0.2,0-0.2-0.1c-0.1-0.1,0-0.2,0.1-0.3l0,0l1.1-0.7c0.1-0.1,0.2,0,0.3,0.1
	c0,0,0,0,0,0c0,0.1,0,0.1,0,0.2v5.6c0,0.1-0.1,0.2-0.2,0.2l0,0c-0.1,0-0.2-0.1-0.2-0.2L428.4,261.5z"/>
<path class="st16" d="M448.7,266.6l2.9-2.6c0.3-0.3,0.5-0.7,0.5-1.1c0-0.9-0.7-1.6-1.6-1.6c-0.4,0-0.8,0.1-1,0.4l-0.3,0.3
	c-0.1,0.1-0.2,0.1-0.3,0l0,0c-0.1-0.1-0.1-0.2,0-0.3l0,0l0.3-0.3c0.4-0.3,0.9-0.5,1.4-0.5c1.1,0,2,0.9,2,2c0,0.6-0.2,1.1-0.7,1.5
	l-2.4,2.2h2.9c0.1,0,0.2,0.1,0.2,0.2c0,0,0,0,0,0c0,0.1-0.1,0.2-0.2,0.2h-3.5c-0.1,0-0.1,0-0.2-0.1
	C448.5,266.9,448.5,266.8,448.7,266.6L448.7,266.6z"/>
<path class="st16" d="M453.8,266.6l2.9-2.6c0.6-0.6,0.6-1.6,0-2.2c-0.6-0.6-1.5-0.6-2.1-0.1l-0.3,0.3c-0.1,0.1-0.2,0.1-0.3,0l0,0
	c-0.1-0.1-0.1-0.2,0-0.3l0,0l0.3-0.3c0.4-0.3,0.9-0.5,1.4-0.5c0.6,0,1.1,0.2,1.5,0.6c0.7,0.8,0.7,2.1-0.1,2.8l-2.5,2.2h2.9
	c0.1,0,0.2,0.1,0.2,0.2c0,0.1-0.1,0.2-0.2,0.2H454c-0.1,0-0.1,0-0.2-0.1C453.8,266.8,453.8,266.7,453.8,266.6z"/>
<path class="st16" d="M477.1,266.6l2.9-2.6c0.3-0.3,0.5-0.7,0.5-1.1c0-0.9-0.7-1.6-1.6-1.6c0,0,0,0,0,0c-0.4,0-0.7,0.2-1,0.4
	l-0.3,0.3c-0.1,0.1-0.2,0.1-0.3,0l0,0c-0.1-0.1-0.1-0.2,0-0.3l0.3-0.3c0.4-0.3,0.9-0.5,1.4-0.5c0.6,0,1.1,0.2,1.5,0.7
	c0.3,0.4,0.5,0.8,0.5,1.3c0,0.6-0.2,1.1-0.7,1.5l-2.5,2.2h2.9c0.1,0,0.2,0.1,0.2,0.2c0,0.1-0.1,0.2-0.2,0.2h-3.5
	c-0.1,0-0.1,0-0.1-0.1C477,266.9,477,266.8,477.1,266.6L477.1,266.6z"/>
<path class="st16" d="M486,261.3l-1.6,1.6c0.4,0.1,0.8,0.3,1,0.5c0.4,0.4,0.6,0.9,0.6,1.5c0,0.6-0.2,1.1-0.6,1.5
	c-0.4,0.4-0.9,0.6-1.5,0.6c-0.5,0-1.1-0.2-1.5-0.6c-0.1-0.1-0.1-0.2,0-0.3l0,0c0.1-0.1,0.2-0.1,0.3,0c0.6,0.6,1.7,0.6,2.3,0
	c0.3-0.3,0.5-0.7,0.5-1.2c0-0.4-0.2-0.9-0.5-1.2c-0.3-0.3-0.7-0.5-1.2-0.5c-0.1,0-0.1,0-0.2-0.1l0,0c-0.1-0.1-0.1-0.2,0-0.3l0,0
	l1.5-1.6H483c-0.1,0-0.2-0.1-0.2-0.2s0.1-0.2,0.2-0.2l0,0h2.9c0.1,0,0.2,0.1,0.2,0.2v0.1C486.1,261.3,486,261.3,486,261.3z"/>
<path class="st16" d="M505.4,266.6l2.9-2.6c0.3-0.3,0.5-0.7,0.5-1.1c0-0.9-0.7-1.6-1.6-1.6c-0.4,0-0.8,0.1-1,0.4l-0.3,0.3
	c-0.1,0.1-0.2,0.1-0.3,0l0,0c-0.1-0.1-0.1-0.2,0-0.3l0,0l0.3-0.3c0.4-0.3,0.9-0.5,1.4-0.5c1.1,0,2,0.9,2,2c0,0.6-0.2,1.1-0.7,1.5
	l-2.4,2.2h2.9c0.1,0,0.2,0.1,0.2,0.2c0,0,0,0,0,0c0,0.1-0.1,0.2-0.2,0.2h-3.5c-0.1,0-0.1,0-0.2-0.1
	C505.3,266.9,505.3,266.8,505.4,266.6L505.4,266.6z"/>
<path class="st16" d="M513.8,265.8h-3.3c0,0-0.1,0-0.1,0c-0.1-0.1-0.1-0.2,0-0.3c0,0,0,0,0,0l0,0l3.5-4.4l0,0c0.1-0.1,0.2-0.1,0.3,0
	l0,0c0,0,0.1,0.1,0.1,0.1v4.3h0.4c0.1,0,0.2,0,0.3,0.1c0,0,0,0,0,0c0,0.1,0,0.2-0.1,0.3c0,0,0,0,0,0c0,0-0.1,0-0.1,0h-0.4v1
	c0,0.1,0,0.2-0.2,0.3c-0.1,0-0.2,0-0.3-0.2l0,0c0,0,0-0.1,0-0.1L513.8,265.8z M513.8,265.3v-3.6l-2.8,3.6L513.8,265.3z"/>
<path class="st16" d="M533.4,266.6l2.9-2.6c0.3-0.3,0.5-0.7,0.5-1.1c0-0.9-0.7-1.6-1.6-1.6c0,0,0,0,0,0c-0.4,0-0.7,0.2-1,0.4
	l-0.3,0.3c-0.1,0.1-0.2,0.1-0.3,0l0,0c-0.1-0.1-0.1-0.2,0-0.3l0.3-0.3c0.4-0.3,0.9-0.5,1.4-0.5c0.6,0,1.1,0.2,1.5,0.7
	c0.3,0.4,0.5,0.8,0.5,1.3c0,0.6-0.2,1.1-0.7,1.5l-2.5,2.2h2.9c0.1,0,0.2,0.1,0.2,0.2c0,0.1-0.1,0.2-0.2,0.2h-3.5
	c-0.1,0-0.1,0-0.2-0.1C533.3,266.9,533.3,266.8,533.4,266.6L533.4,266.6z"/>
<path class="st16" d="M538.7,266.4c-0.1-0.1-0.1-0.2,0-0.3c0.1-0.1,0.2-0.1,0.3,0c0,0,0,0,0,0l0,0c0.6,0.6,1.7,0.6,2.3,0
	c0.3-0.3,0.5-0.7,0.5-1.2c0-0.4-0.2-0.9-0.5-1.2c-0.3-0.3-0.7-0.5-1.2-0.5c-0.4,0-0.8,0.2-1.2,0.5c-0.1,0.1-0.2,0.1-0.3,0
	c0,0,0,0,0,0l0,0 M538.7,263.7L538.7,263.7L538.7,263.7L538.7,263.7l0.3-2.6c0-0.1,0-0.1,0.1-0.1c0,0,0.1,0,0.1,0h2.8
	c0.1,0,0.2,0.1,0.2,0.2s-0.1,0.2-0.2,0.2l0,0h-2.7l-0.2,1.8c0.3-0.2,0.6-0.3,1-0.3c1.1,0,2.1,0.9,2.1,2.1c0,0.5-0.2,1.1-0.6,1.4
	c-0.4,0.4-0.9,0.6-1.5,0.6c-0.6,0-1.1-0.3-1.5-0.7L538.7,263.7z"/>
<path class="st16" d="M364.8,289.4l2.9-2.6c0.6-0.6,0.7-1.6,0.1-2.2c0,0,0,0,0,0c-0.3-0.3-0.7-0.5-1.2-0.5c-0.4,0-0.8,0.1-1.1,0.4
	l-0.3,0.3c-0.1,0.1-0.2,0.1-0.3,0c0,0,0,0,0,0l0,0c-0.1-0.1-0.1-0.2,0-0.3c0,0,0,0,0,0l0,0l0.3-0.3c0.4-0.3,0.9-0.5,1.4-0.5
	c1.1,0,2,0.9,2,2c0,0.6-0.2,1.1-0.7,1.5l-2.5,2.2h2.9c0.1,0,0.2,0.1,0.2,0.2c0,0,0,0,0,0c0,0.1-0.1,0.2-0.2,0.2h-3.5
	c-0.1,0-0.1,0-0.2,0C364.6,289.7,364.6,289.6,364.8,289.4C364.7,289.4,364.7,289.4,364.8,289.4z"/>
<path class="st16" d="M370.6,285c0.4-0.8,1.2-1.3,2.1-1.3c0.1,0,0.2,0,0.3,0.1c0,0,0,0,0,0c0,0.1,0,0.2-0.1,0.3c0,0,0,0,0,0h-0.1
	c-0.8,0-1.4,0.5-1.8,1.2c-0.2,0.4-0.4,0.8-0.4,1.2c0.7-0.8,2-0.9,2.8-0.2c0.8,0.7,0.9,2,0.2,2.8c-0.7,0.8-2,0.9-2.8,0.2
	c-0.4-0.4-0.6-0.9-0.7-1.4v-0.4C370,286.6,370.2,285.8,370.6,285z M370.5,287.8c0,0,0,0.1,0,0.1v0.1c0.1,0.9,0.8,1.5,1.7,1.5
	c0.9-0.1,1.5-0.8,1.5-1.7c-0.1-0.9-0.8-1.5-1.7-1.5C371.1,286.3,370.5,287,370.5,287.8L370.5,287.8z"/>
<path class="st16" d="M393.1,289.4l2.9-2.6c0.6-0.6,0.6-1.6,0-2.2c-0.6-0.6-1.5-0.6-2.1-0.1l-0.3,0.3c-0.1,0.1-0.2,0.1-0.3,0l0,0
	c-0.1-0.1-0.1-0.2,0-0.3l0,0l0.3-0.3c0.4-0.3,0.9-0.5,1.4-0.5c1.1,0,2,0.9,2,2l0,0c0,0.6-0.2,1.1-0.7,1.5l-2.5,2.2h2.9
	c0.1,0,0.2,0.1,0.2,0.2l0,0c0,0.1-0.1,0.2-0.2,0.2h-3.5c-0.1,0-0.1,0-0.2,0c-0.1-0.1-0.2-0.2-0.1-0.3
	C393,289.5,393,289.4,393.1,289.4z"/>
<path class="st16" d="M399.1,289.5l2.3-5.4h-3c-0.1,0-0.2-0.1-0.2-0.2c0-0.1,0.1-0.2,0.2-0.2h3.4c0.1,0,0.1,0.1,0.1,0.1
	c0,0,0,0,0,0.1c0,0,0,0.1,0,0.1l-2.3,5.6c0,0.1-0.1,0.1-0.2,0.1h-0.2C399.1,289.7,399.1,289.6,399.1,289.5z"/>
<path class="st16" d="M420.9,289.4l2.9-2.6c0.6-0.6,0.7-1.5,0.2-2.2c0,0,0,0,0,0l0,0c-0.6-0.6-1.6-0.7-2.2-0.1l-0.3,0.3
	c-0.1,0.1-0.2,0.1-0.3,0l0,0c-0.1-0.1-0.1-0.2,0-0.3l0,0l0.3-0.3c0.4-0.3,0.9-0.5,1.4-0.5c1.1,0,2,0.9,2,2c0,0.6-0.2,1.1-0.7,1.5
	l-2.5,2.2h2.9c0.1,0,0.2,0.1,0.2,0.2l0,0c0,0.1-0.1,0.2-0.2,0.2h-3.5c-0.1,0-0.1,0-0.2,0c-0.1-0.1-0.1-0.2-0.1-0.3c0,0,0,0,0,0
	C420.9,289.5,420.9,289.4,420.9,289.4z"/>
<path class="st16" d="M428.1,283.6c0.7,0,1.3,0.6,1.3,1.2c0,0,0,0,0,0c0,0.4-0.2,0.8-0.5,1c1,0.4,1.5,1.6,1.1,2.6
	c-0.4,1-1.6,1.5-2.6,1.1c-1-0.4-1.5-1.6-1.1-2.6c0.2-0.5,0.6-0.9,1.1-1.1c-0.3-0.2-0.5-0.6-0.5-1
	C426.8,284.2,427.4,283.7,428.1,283.6C428.1,283.6,428.1,283.6,428.1,283.6L428.1,283.6z M428.1,289.4c0.9,0,1.6-0.7,1.6-1.6
	c0-0.9-0.7-1.6-1.6-1.6c-0.9,0-1.6,0.7-1.6,1.6c0,0,0,0,0,0l0,0C426.5,288.6,427.2,289.3,428.1,289.4
	C428.1,289.3,428.1,289.3,428.1,289.4L428.1,289.4z M428.1,285.8c0.5,0,0.9-0.4,0.9-0.9c0-0.5-0.4-0.9-0.9-0.9l0,0l0,0
	c-0.5,0-0.8,0.4-0.8,0.8c0,0,0,0,0,0l0,0C427.2,285.3,427.6,285.8,428.1,285.8C428.1,285.8,428.1,285.8,428.1,285.8L428.1,285.8
	L428.1,285.8z"/>
<path class="st16" d="M448.5,289.4l2.9-2.6c0.3-0.3,0.5-0.7,0.5-1.1c0-0.9-0.7-1.6-1.6-1.6c-0.4,0-0.7,0.1-1,0.4l-0.3,0.3
	c-0.1,0.1-0.2,0.1-0.3,0l0,0c-0.1-0.1-0.1-0.2,0-0.3l0,0l0.3-0.3c0.4-0.3,0.9-0.5,1.4-0.5c1.1,0,2,0.9,2,2l0,0
	c0,0.6-0.2,1.1-0.6,1.5l-2.5,2.2h2.9c0.1,0,0.2,0.1,0.2,0.2l0,0c0,0.1-0.1,0.2-0.2,0.2h-3.5c-0.1,0-0.1,0-0.2,0
	C448.3,289.7,448.3,289.6,448.5,289.4C448.4,289.5,448.4,289.5,448.5,289.4L448.5,289.4z"/>
<path class="st16" d="M455.8,283.6c1,0,1.9,0.8,2,1.8l0,0v0.6c0,0.8-0.2,1.7-0.6,2.4c-0.4,0.8-1.2,1.3-2.1,1.3l0,0
	c-0.1,0-0.2-0.1-0.2-0.2l0,0c0-0.1,0.1-0.2,0.2-0.2c0.8,0,1.5-0.5,1.8-1.2c0.2-0.4,0.4-0.8,0.4-1.2c-0.8,0.8-2,0.9-2.8,0.1
	c-0.8-0.8-0.9-2-0.1-2.8C454.7,283.9,455.2,283.6,455.8,283.6L455.8,283.6L455.8,283.6z M457.4,285.6c0-0.9-0.7-1.6-1.6-1.6
	c-0.9,0-1.6,0.7-1.6,1.6c0,0.9,0.7,1.6,1.6,1.6c0,0,0,0,0,0l0,0C456.6,287.2,457.3,286.5,457.4,285.6L457.4,285.6z"/>
<path class="st16" d="M480.5,284l-1.6,1.6c0.4,0.1,0.8,0.3,1,0.5c0.4,0.4,0.6,0.9,0.6,1.5c0,0.6-0.2,1.1-0.6,1.5
	c-0.4,0.4-0.9,0.6-1.5,0.6c-0.5,0-1.1-0.2-1.5-0.6c-0.1-0.1-0.1-0.2,0-0.3c0,0,0,0,0,0c0.1-0.1,0.2-0.1,0.3,0l0,0
	c0.3,0.3,0.7,0.5,1.1,0.5c0.4,0,0.8-0.2,1.2-0.5c0.6-0.6,0.6-1.7,0-2.3c0,0,0,0,0,0c-0.3-0.3-0.7-0.5-1.1-0.5c-0.1,0-0.1,0-0.2-0.1
	l0,0c-0.1-0.1-0.1-0.2,0-0.3c0,0,0,0,0,0l0,0l1.5-1.6h-2.3c-0.1,0-0.2-0.1-0.2-0.2l0,0c0-0.1,0.1-0.2,0.2-0.2c0,0,0,0,0,0h2.9
	c0.1,0,0.2,0.1,0.2,0.2v0.2H480.5z"/>
<path class="st16" d="M482.2,286.7c0-0.8,0.2-1.5,0.6-2.1c0.5-0.8,1.5-1.2,2.4-0.7c0.3,0.2,0.5,0.4,0.7,0.7c0.8,1.3,0.8,3,0,4.3
	c-0.4,0.8-1.5,1.2-2.3,0.7c-0.3-0.2-0.6-0.4-0.7-0.7C482.4,288.2,482.2,287.5,482.2,286.7z M482.7,286.7c0,0.7,0.2,1.3,0.5,1.9
	c0.2,0.4,0.7,0.7,1.1,0.7c0.5,0,0.9-0.3,1.2-0.7c0.7-1.2,0.7-2.6,0-3.8c-0.2-0.4-0.7-0.7-1.2-0.7c-0.5,0-0.9,0.3-1.1,0.7
	C482.8,285.4,482.7,286,482.7,286.7L482.7,286.7z"/>
<path class="st16" d="M367.2,238.5l-0.9,0.5h-0.1c-0.1,0-0.1,0-0.2-0.1c-0.1-0.1,0-0.2,0-0.3l0,0l1.2-0.7c0.1,0,0.2,0,0.3,0.1
	c0,0.1,0,0.1,0,0.2v5.6c0,0.1-0.1,0.2-0.2,0.2c-0.1,0-0.2-0.1-0.2-0.2L367.2,238.5z"/>
<path class="st16" d="M369.2,243.7l2.9-2.6c0.3-0.3,0.5-0.7,0.5-1.2c0-0.9-0.7-1.6-1.6-1.6c-0.4,0-0.7,0.2-1,0.4l-0.3,0.3
	c-0.1,0.1-0.2,0.1-0.3,0l0,0c-0.1-0.1-0.1-0.2,0-0.3c0,0,0,0,0,0l0,0l0.3-0.3c0.4-0.3,0.9-0.5,1.4-0.5c1.1,0,2,0.9,2,2l0,0
	c0,0.6-0.2,1.1-0.7,1.5l-2.4,2.2h2.9c0.1,0,0.2,0.1,0.2,0.2s-0.1,0.2-0.2,0.2h-3.5c0,0-0.1,0-0.2,0c-0.1-0.1-0.1-0.2-0.1-0.3
	c0,0,0,0,0,0C369.1,243.7,369.1,243.7,369.2,243.7z"/>
<path class="st16" d="M395.2,238.5l-0.9,0.5h-0.1c-0.1,0-0.1,0-0.2-0.1c-0.1-0.1,0-0.2,0.1-0.3c0,0,0,0,0,0l0,0l1.2-0.7
	c0.1,0,0.2,0,0.3,0.1c0,0.1,0,0.1,0,0.2v5.6c0,0.1-0.1,0.2-0.2,0.2c0,0,0,0,0,0c-0.1,0-0.2-0.1-0.2-0.2L395.2,238.5z"/>
<path class="st16" d="M400.9,238.3l-1.6,1.6c0.4,0.1,0.8,0.3,1,0.6c0.8,0.8,0.8,2.1,0,2.9s-2.1,0.8-2.9,0c-0.1-0.1-0.1-0.2,0-0.3
	c0.1-0.1,0.2-0.1,0.3,0l0,0c0.3,0.3,0.7,0.5,1.1,0.5c0.9,0,1.6-0.7,1.6-1.6c0-0.4-0.2-0.8-0.5-1.1l0,0c-0.3-0.3-0.7-0.5-1.2-0.5
	c-0.1,0-0.1,0-0.2-0.1l0,0c-0.1-0.1-0.1-0.2,0-0.3c0,0,0,0,0,0l0,0l1.5-1.6h-2.3c-0.1,0-0.2-0.1-0.2-0.2s0.1-0.2,0.2-0.2h2.9
	c0.1,0,0.2,0.1,0.2,0.2c0,0,0,0,0,0v0.1L400.9,238.3z"/>
<path class="st16" d="M422.8,238.5l-0.9,0.5h-0.1c-0.1,0-0.1,0-0.2-0.1c-0.1-0.1,0-0.2,0-0.3l0,0l1.2-0.7c0.1,0,0.2,0,0.3,0.1
	c0,0.1,0,0.1,0,0.2v5.6c0,0.1-0.1,0.2-0.2,0.2l0,0c-0.1,0-0.2-0.1-0.2-0.2c0,0,0,0,0,0L422.8,238.5z"/>
<path class="st16" d="M428.2,242.8h-3.3c0,0-0.1,0-0.1,0c-0.1-0.1-0.1-0.2,0-0.3l0,0l3.5-4.4l0,0c0.1-0.1,0.2-0.1,0.3,0l0,0l0.1,0.1
	v4.3h0.4c0.1,0,0.2,0.1,0.2,0.2s-0.1,0.2-0.2,0.2h-0.4v1.1c0,0.1-0.1,0.2-0.2,0.2l0,0c-0.1,0-0.2-0.1-0.2-0.2L428.2,242.8z
	 M428.2,242.4v-3.6l-2.9,3.6H428.2z"/>
<path class="st16" d="M450.9,238.5L450,239h-0.1c-0.1,0-0.1,0-0.2-0.1c-0.1-0.1,0-0.2,0.1-0.3c0,0,0,0,0,0l0,0l1.1-0.7
	c0.1,0,0.2,0,0.3,0.1c0,0.1,0,0.1,0,0.2v5.6c0,0.1-0.1,0.2-0.2,0.2l0,0c-0.1,0-0.2-0.1-0.2-0.2c0,0,0,0,0,0L450.9,238.5z"/>
<path class="st16" d="M453,243.4c-0.1-0.1-0.1-0.2,0-0.3c0.1-0.1,0.2-0.1,0.3,0l0,0c0.3,0.3,0.7,0.5,1.1,0.5c0.4,0,0.9-0.2,1.2-0.5
	c0.3-0.3,0.5-0.7,0.5-1.1c0-0.4-0.2-0.8-0.5-1.2c-0.3-0.3-0.7-0.5-1.2-0.5c-0.4,0-0.8,0.2-1.1,0.5c-0.1,0.1-0.2,0.1-0.3,0
	c0,0,0,0,0,0l0,0c0,0,0,0,0-0.1l0,0v-0.1l0,0l0.3-2.5c0-0.1,0.1-0.2,0.2-0.2c0,0,0,0,0,0h2.9c0.1,0,0.2,0.1,0.2,0.2
	s-0.1,0.2-0.2,0.2h-2.7l-0.2,1.8c0.3-0.2,0.6-0.3,1-0.3c0.6,0,1.1,0.2,1.5,0.6c0.4,0.4,0.6,0.9,0.6,1.5c0,1.1-0.8,2-1.9,2.1
	c0,0-0.1,0-0.1,0C453.9,244.1,453.4,243.8,453,243.4z"/>
<path class="st16" d="M479.1,238.5l-0.9,0.5h-0.1c-0.1,0-0.1,0-0.2-0.1c-0.1-0.1,0-0.2,0-0.3c0,0,0,0,0,0l0,0l1.1-0.7
	c0.1,0,0.2,0,0.3,0.1c0,0.1,0,0.1,0,0.2v5.6c0,0.1-0.1,0.2-0.2,0.2c-0.1,0-0.2-0.1-0.2-0.2l0,0L479.1,238.5z"/>
<path class="st16" d="M481.7,239.2c0.4-0.8,1.2-1.3,2.1-1.3c0.1,0,0.2,0.1,0.2,0.2c0,0,0,0,0,0c0,0.1-0.1,0.2-0.2,0.2
	c-0.8,0-1.5,0.5-1.8,1.2c-0.2,0.4-0.4,0.8-0.4,1.2c0.7-0.8,2-0.9,2.8-0.2s0.9,2,0.2,2.8c-0.7,0.8-2,0.9-2.8,0.2
	c-0.4-0.4-0.6-0.9-0.7-1.4v-0.4C481.1,240.9,481.3,240,481.7,239.2z M481.6,242.1v0.1c0,0,0,0,0,0.1c0.1,0.9,0.8,1.6,1.7,1.5
	c0.9-0.1,1.6-0.8,1.5-1.7c-0.1-0.9-0.8-1.6-1.7-1.5C482.3,240.6,481.6,241.2,481.6,242.1L481.6,242.1z"/>
<path class="st16" d="M507.9,238.5L507,239h-0.1c-0.1,0-0.2,0-0.2-0.1c-0.1-0.1,0-0.2,0.1-0.3l0,0l1.1-0.7c0.1,0,0.2,0,0.3,0.1
	c0,0.1,0,0.1,0,0.2v5.6c0,0.1-0.1,0.2-0.2,0.2c0,0,0,0,0,0l0,0c-0.1,0-0.2-0.1-0.2-0.2L507.9,238.5z"/>
<path class="st16" d="M510.8,243.7l2.3-5.4h-3c-0.1,0-0.2-0.1-0.2-0.2c0-0.1,0.1-0.2,0.2-0.2h3.4c0.1,0,0.1,0.1,0.1,0.1
	c0,0,0,0,0,0.1c0,0,0,0.1,0,0.1l-2.4,5.6c0,0.1-0.1,0.1-0.2,0.1h-0.1C510.8,244,510.7,243.9,510.8,243.7z"/>
<path class="st16" d="M535.4,238.5l-0.9,0.5h-0.1c-0.1,0-0.2,0-0.2-0.1c-0.1-0.1,0-0.2,0.1-0.3c0,0,0,0,0,0l0,0l1.2-0.7
	c0.1,0,0.2,0,0.3,0.1c0,0.1,0,0.1,0,0.2v5.6c0,0.1-0.1,0.2-0.2,0.2c0,0,0,0,0,0l0,0c-0.1,0-0.2-0.1-0.2-0.2L535.4,238.5z"/>
<path class="st16" d="M539.3,237.9c0.7,0,1.3,0.6,1.3,1.3c0,0,0,0,0,0l0,0c0,0.4-0.2,0.8-0.5,1c1,0.4,1.5,1.6,1.1,2.6
	c-0.4,1-1.6,1.5-2.6,1.1c-1-0.4-1.5-1.6-1.1-2.6c0,0,0,0,0,0c0.2-0.5,0.6-0.9,1.1-1.1c-0.3-0.2-0.5-0.6-0.5-1
	C538,238.5,538.6,237.9,539.3,237.9C539.3,237.9,539.3,237.9,539.3,237.9z M539.3,243.6c0.9,0,1.6-0.7,1.6-1.6
	c0-0.9-0.7-1.6-1.6-1.6s-1.6,0.7-1.6,1.6l0,0C537.8,242.9,538.4,243.6,539.3,243.6L539.3,243.6z M539.3,240c0.5,0,0.9-0.4,0.9-0.9
	c0-0.5-0.4-0.8-0.9-0.8c-0.5,0-0.8,0.4-0.8,0.8c0,0,0,0,0,0l0,0C538.5,239.6,538.8,240,539.3,240z"/>
<polygon class="st15" points="362.3,133.3 362.3,127.3 358.7,130.3 "/>
<polygon class="st15" points="545,127.3 545,133.3 548.6,130.3 "/>
<path class="st15" d="M442.2,131c0.3,1,1.4,1.5,2.4,1.2c0.7-0.3,1.2-0.9,1.3-1.7v-5.4c0-0.4,0.3-0.8,0.8-0.8s0.8,0.3,0.8,0.8l0,0
	v5.4c0,1.9-1.6,3.3-3.4,3.3c-1.4,0-2.7-0.9-3.1-2.3c-0.1-0.4,0.1-0.8,0.4-0.9l0,0C441.6,130.4,442,130.6,442.2,131L442.2,131z"/>
<path class="st15" d="M452,133.8c-1.5,0-2.8-1.3-2.8-2.8v-3.2c0-0.4,0.4-0.7,0.8-0.6c0.3,0,0.6,0.3,0.6,0.6v3.2
	c0,0.7,0.6,1.4,1.3,1.4c0,0,0,0,0,0h0.1c0.8,0,1.4-0.6,1.4-1.4c0,0,0,0,0,0v-3.2c0-0.4,0.3-0.7,0.7-0.7c0,0,0,0,0,0l0,0
	c0.4,0,0.7,0.3,0.7,0.7v3.2C454.8,132.6,453.6,133.8,452,133.8z"/>
<path class="st15" d="M458,124.4c0.4,0,0.7,0.3,0.8,0.7v8c0,0.4-0.4,0.7-0.8,0.7c-0.3,0-0.6-0.3-0.7-0.7v-8
	C457.3,124.7,457.6,124.4,458,124.4z"/>
<path class="st15" d="M466.5,127.8v5.1c0,1.8-1.4,3.2-3.1,3.2c0,0,0,0,0,0h0c-0.5,0-1-0.1-1.4-0.3c-0.4-0.2-0.5-0.6-0.4-0.9
	c0,0,0,0,0-0.1l0,0c0.2-0.4,0.6-0.5,1-0.3c0.2,0.1,0.5,0.2,0.8,0.2c0.8,0,1.4-0.5,1.7-1.2c-0.4,0.2-0.8,0.3-1.3,0.3
	c-1.5,0-2.8-1.2-2.8-2.8v-3.2c0-0.4,0.3-0.7,0.7-0.7c0.4,0,0.7,0.3,0.7,0.7c0,0,0,0,0,0v3.2c0,0.8,0.6,1.4,1.4,1.4
	c0.8,0,1.4-0.6,1.4-1.4v-3.2c0-0.4,0.3-0.7,0.6-0.7h0C466.2,127.1,466.5,127.4,466.5,127.8z"/>
<path class="st21" d="M226.3,549.4l5,64.2l5.2,1.4l0,0l19.4,5.2l-2-18.7l7.5-38.5c3.7-16.8,8.9-33.2,15.5-49
	c6.8-11.7,7.9-25.9,7.9-25.9l4.7-50.1l0.5-4.8c-19.6,3.7-33.1-1.3-33.1-1.3v4.3h-7.6l-9.8,9.5L226.3,549.4z"/>
<path class="st22" d="M226.3,549.4l5,64.2l5.2,1.4l0,0c-2.1-34.5,12.7-99.5,12.7-99.5c3.3-10,5.8-20.3,7.5-30.7l3.6-36.5
	c2.6-14.5,29-10.3,29-10.3l0.5-4.8c-19.6,3.7-33.1-1.3-33.1-1.3v4.3h-7.6l-9.8,9.5L226.3,549.4z"/>
<path class="st21" d="M251.1,436.1c0,0-5.3,67.5-9.4,75.4c-5.7,15-8.8,30.9-9.1,46.9l-1.9,49.4l-2.4,17.5l-14.7-7.3
	c0,0-18.4-72.6-9.1-94.6c0,0,4-18.6,0.6-34.1c0,0-5.3-38.2-5.9-54.8L251.1,436.1z"/>
<path class="st16" d="M195,434.9l39.2,0.8l22.5,0.5v-4.3c14.3,5.5,40.1,0,40.1,0V350c-0.7,1.1-1.8,1.8-3.1,2
	c-9.2,5.6-42.9,2.4-58.2,0s-31.4-4.8-31.4-4.8C195.7,360.5,195,434.9,195,434.9z"/>
<path class="st19" d="M296.9,428.9c0,0-24.3,7.1-30.3-18.1c0,0-2.6-25-7.9-17.9l-2,39c0,0,12.9,6,40.1,0L296.9,428.9z"/>
<path class="st19" d="M211.6,382.5c4.9-27.5,21.5-25.6,21.5-25.6c25.2,5.3,63.8,0,63.8,0V350c-0.7,1.1-1.8,1.8-3.1,2
	c-9.2,5.6-42.9,2.4-58.2,0s-31.4-4.8-31.4-4.8c-8.5,13.3-9.1,87.7-9.1,87.7l39.2,0.8C198.3,429.9,211.6,382.5,211.6,382.5z"/>
<path class="st21" d="M225,229.2l0.4,8.9l0.2,4.2c12,14.3,26.8,14.9,33.7,14.3c3-0.3,5.4-2.8,5.5-5.8c0.2-4.6-3-8.1-5.4-10.1
	c-0.4-0.4-0.8-0.7-1.2-0.9c-0.8-0.6-1.4-1.6-1.5-2.6l-0.2-2.4l-0.6-6.2c-3.6,3.3-8.2,5.4-13.1,6c-3.5,0.4-7.1,0-10.4-1.3l0,0
	C229.7,232.3,227.2,230.9,225,229.2z"/>
<path class="st21" d="M210.1,200.4c1.4,12.4,7.2,22.8,15,28.8c2.2,1.7,4.7,3.1,7.4,4.1l0,0c3.3,1.2,6.9,1.7,10.4,1.3
	c4.9-0.6,9.5-2.7,13.1-6c8.2-7.3,12.8-20.4,11.2-34.6c-2.3-20.6-17-36-32.7-34.2S207.7,179.8,210.1,200.4z"/>
<path class="st22" d="M232.4,233.3c15,7.1,24.1,1.4,24.1,1.4l-0.6-6.2c-3.6,3.3-8.2,5.4-13.1,6C239.3,235,235.7,234.5,232.4,233.3z"
	/>
<path class="st23" d="M168.1,285.2c0,0,15.9,0,20.1,19.3c0,0,0.6,4.2,7.6-3l5.6-5.5l2.6,51.1c0,0,16.1,2.4,31.4,4.8s49,5.6,58.2,0
	c1.3-0.2,2.4-0.9,3.1-2l0,0c1.4-1.8,2.7-5.1,2.5-11.5v-14.6c0,0,2.6-18.4,0-29L304,266c0,0-7.2-21.4-25.9-23.4l-18.7-2
	c2.4,2,5.6,5.6,5.4,10.1c-0.1,3-2.5,5.5-5.5,5.8c-6.9,0.6-21.7,0-33.7-14.3c0,0-7.6,11.3-26.3,9.5L168.1,285.2z"/>
<path class="st24" d="M218.7,236.9l5,7.1c9.1,11.9,23.9,17.9,38.7,15.7c1.1-0.1,2.1-0.5,3-1.2c6.8-4.7-0.6-17.4-0.6-17.4l-5.4-0.6
	c2.4,2,5.6,5.6,5.4,10.1c-0.1,3-2.5,5.5-5.5,5.8c-6.9,0.6-21.7,0-33.7-14.3l-0.2-4.2L218.7,236.9z"/>
<path class="st19" d="M238.5,352.5c0,0-24.5-8.7-23.9-25.6v-40l-13.1,9.1l2.6,51.1L238.5,352.5z"/>
<polygon class="st19" points="214.6,286.9 201.8,301.3 201.5,296 "/>
<path class="st22" d="M251.1,436.1l-0.2,2.5c0,0-37.7-0.7-51,3.9l-0.5-8L251.1,436.1z"/>
<path class="st25" d="M272,647.2c0,0-1.8-9.6,4.8-14.7l0,0l0.3-0.2l0.3-0.2c2.6-1.8,6.3-2.9,11.6-2.6l0,0
	c-0.8-0.3-26.9-10-26.3-27.8c0-0.6-0.4-1.1-1.1-1.2c-0.1,0-0.2,0-0.2,0l-10.8,1.6c-0.6,0.1-1,0.7-0.9,1.3c0,0,0,0.1,0,0.1
	c0.8,3,3,10.8,5,14.2l0,0c0.1,0.2,0.2,0.3,0.3,0.4c-0.4-0.5-9-9.3-18.7-12.5c-1.2-0.4-1.8,1.6-2,2.8c-0.6,4.4,0,13.8-1.8,19.1
	C232.3,627.7,246.6,641.4,272,647.2z"/>
<path class="st26" d="M233.7,638l24.3,12.5c1.8,0.9,3.7,1.7,5.6,2.2c39.4,11,41.2-5.5,41.2-5.5c2.5-11.9-16-17.7-16-17.7
	c-20.3-1-16.9,17.7-16.9,17.7c-25.4-5.8-39.7-19.5-39.7-19.5c-0.9,1.6-1.5,3.3-1.6,5.1C230.6,635,231.8,637,233.7,638z"/>
<path class="st19" d="M272,647.2c-0.1-0.9-0.2-1.8-0.2-2.8c0,0,25.2,7.2,30.8-4.5c0,0-0.6,9.3-14.1,9.5
	C282.9,649.3,277.4,648.6,272,647.2z"/>
<path class="st27" d="M249.5,603.5c0.8,3,3,10.8,5,14.2l0,0l0.3,0.4c8.4,11.5,21.9,14.3,21.9,14.3l0,0c0.1-0.1,0.2-0.1,0.3-0.2
	l0.3-0.2c5.1-3.6,11.6-2.6,11.6-2.6l0,0c-0.8-0.3-26.9-10-26.3-27.8c0-0.6-0.4-1.1-1.1-1.2c-0.1,0-0.2,0-0.2,0l-10.8,1.6
	c-0.6,0.1-1,0.7-0.9,1.3C249.5,603.4,249.5,603.5,249.5,603.5z"/>
<path class="st19" d="M304,266l-4.6,29c-2.9-4.7-4.8-9.8-5.7-15.2c-0.6-4.2,0.4-8.5,2.7-12.1c1.5-2.3,3.5-4.3,5.8-5.7L304,266z"/>
<path class="st28" d="M162.2,220.5c0,0,8,2.4,4.3,8s1.3,7.6,10.5,8.4c0,0,1.3,8.1,14.2,8.6c0.4,0,0.8,0,1.3,0
	c0.1,0.4,0.2,0.8,0.3,1.2c0.6,1.6,2.1,4.2,6.5,5c5.1,0.4,10.2-0.2,15.1-1.6c4.3-1.4,8.6-3.7,11.2-7.9l-0.6-13
	c-3.3-2.6-6.1-5.7-8.5-9.2l-4-16c0,0,5.6,1.4,6.8,9.6c0,0,2.4-1.1-2.8-10.6c0,0-1.2-10.1,7.1-8.7c0,0,8.2,1.6,8.7-7.5
	c0,0-0.5-5.1,3.6-6.3c0,0,1.9-1.1,2.4-5.3c0.1-0.9,0.2-1.8,0.1-2.8c0-1.4,0.3-2.9,1-4.1c1-1.8,2.9-3,4.9-3.3c3-0.4,5.9,0.7,7.8,3.1
	c3.9,4.6,6.5,10.2,7.5,16.2c0,0,1.9,11.4,7.2,20.8c0,0.7-0.1,1.5-0.2,2.2c-0.6,4.3-3,13.8-11,21.3l0.9,8.6l0,0
	c0,0.4,0.2,0.8,0.4,1.2c0.3,0.5,0.7,1,1.1,1.4c0,0,28.5,2.1,21.2-15c0,0,10.3-7,5.6-18.9c0,0,13.5,1.3,12.6-8.6
	c0,0,1.7-8.9-9.8-10.9c0,0-19.9-10-20.5-17.5s-3.5-21.6-21-15.5c-4.7,1.3-9.7,0.8-14-1.5c-7.1-3.8-26.3-10.8-35.7,11.3
	c0,0-5.8,21.8-18.9,23.8c0,0-17.7,2.7-9.7,16c0,0,6.5,3.9-2.1,7.1C166,209.9,151.6,214.9,162.2,220.5z"/>
<path class="st19" d="M189,229.7c1.1,0.6,2.3,1,3.5,1.2c5.9,1,1.4,10-1.3,14.6c0.4,0,0.8,0,1.3,0c0.1,0.4,0.2,0.8,0.3,1.2l5.9-7.5
	c8.1-9.1-1.6-12.7-5.3-13.8c-1.3-0.4-2.5-1.1-3.5-2c-6.5-6.2,2.1-14.9,2.1-14.9c5.3-4.1,7.9-10.7,6.9-17.3
	c0.8-19.7,22.4-31.7,22.4-31.7c-24.3,4-26.8,29.6-26.8,29.6c-1.2,13.2-10.4,21.8-10.4,21.8C175.6,220.9,184.5,227.3,189,229.7z"/>
<path class="st19" d="M209.7,227.1c0,0,3.5,0.8,2.9,9.8c0,0-1.1,7.8,1.8,13.2c4.3-1.4,8.6-3.7,11.2-7.9l-0.6-13.1
	c-3.3-2.6-6.1-5.7-8.5-9.2l-4-16c0,0,5.6,1.4,6.8,9.6c0,0,2.4-1.1-2.8-10.6c0,0-1.2-10.1,7.1-8.7c0,0,8.2,1.6,8.7-7.5
	c0,0-0.5-5.1,3.6-6.3c0,0,1.9-1.1,2.4-5.3c-5,2-8.4,6.9-8.4,12.3c0,0,0.3,5.4-8.8,4.9c0,0-17,0.3-18.4,10.8
	C202.9,203.2,197.4,221,209.7,227.1z"/>
<path class="st19" d="M255.9,228.6l0.9,8.6l0,0c0.1,0.4,0.2,0.8,0.4,1.2c0.2,0.5,0.6,1,1.1,1.4c0,0,28.5,2.1,21.2-15
	c-2-3.9-4.6-7.3-7.9-10.3c0,0-4.1-3.5-4.8-7.2C265.8,215.4,261.9,222.9,255.9,228.6z"/>
<ellipse transform="matrix(0.8945 -0.447 0.447 0.8945 -72.3685 117.3851)" class="st21" cx="212.6" cy="212.1" rx="6.3" ry="8.9"/>
<path class="st21" d="M274.8,225.1L274.8,225.1c1.4,1.7,5.7,4.3,17.4,7.6c0,0-6.3,7.4-3.5,13.1c1,2.1,3.5,2.9,5.6,1.9
	c0.4-0.2,0.8-0.5,1.1-0.8c0.6-0.7,1.7-0.8,2.4-0.3c0,0,1.2,7.6,8,8l-6.4,40.3c0,0,3,10.5,0,30.2c0,0,17.9,11.7,21.3-12
	c0,0,3.1-48.7-3.1-63c0,0-10.8-23.7-19.9-23.9l-23.4-3.4C274.4,223,273.6,223.7,274.8,225.1z"/>
<path class="st22" d="M274.8,225.1L274.8,225.1c1.4,1.7,5.7,4.3,17.4,7.6c0,0-6.3,7.4-3.5,13.1c1,2.1,3.5,2.9,5.6,1.9
	c0.4-0.2,0.8-0.5,1.1-0.8c0.6-0.7,1.7-0.8,2.4-0.3c0,0,1.2,7.6,8,8c-3.5-2-6-5.3-7-9.2c0,0-8.8-2.7-8.1-5.7c0,0,7.3-8.6,0-10.2
	L274.8,225.1z"/>
<path class="st22" d="M319.1,319.7c0,0-13.9,10.2-15.1-9.9c0,0,1.6-13.9-4.1-17.9l-0.5,3.1c0,0,3.2,8.2,0,30.2
	C299.4,325.2,314.3,334.7,319.1,319.7z"/>
<path class="st21" d="M188.2,304.5l-10.5,8.7c0,0,24.4,16.3,30.3,20.7c0,0,6.7,2.1,1.7,18.6c0,0-1.6,10.3-1.7,15.2
	c0,0-3.2,0.7-6.4-5.1c0,0-2.2,7.8-2.2,9.4c0,0-13.8,0.3-8.8-19.5l5.6-14.2c0,0-67.5-8.8-51.8-29.1l23.6-24
	C168.1,285.1,183.6,285.1,188.2,304.5z"/>
<path class="st22" d="M201.7,362.6c0,0,2.3-6.7,3-10.1c0,0-6.3,2.8-5.3,19.5L201.7,362.6z"/>
<path class="st22" d="M195,359.6c-1.6,3.4-1.2,7.8,0,11.2c-0.1-0.5-0.1-0.9-0.2-1.4C194.2,366.2,194.3,362.8,195,359.6z"/>
<path class="st22" d="M188.2,304.5l-3.1,2.6c0,0-2.9-19-18.7-20.2l1.7-1.7C168.1,285.2,183.2,284.2,188.2,304.5z"/>
<path class="st29" d="M245.6,654.3c0,0-1.8-9.7,4.8-14.7l0,0l0.3-0.2l0.3-0.2c2.6-1.8,6.3-2.9,11.6-2.6l0,0
	c-0.8-0.3-26.9-10-26.3-27.8c0-0.6-0.4-1.1-1.1-1.2c-0.1,0-0.1,0-0.2,0l-10.8,1.6c-0.6,0.1-1,0.7-0.9,1.3c0,0,0,0.1,0,0.1
	c0.8,3,3,10.8,5,14.2l0,0c0.1,0.2,0.2,0.3,0.3,0.4c-4.1-5.3-9.7-9.2-16-11.4c-1.1-0.3-2.2,0.2-2.5,1.3c0,0.1-0.1,0.2-0.1,0.4
	c-0.6,4.4-2.1,14-3.9,19.3C205.9,634.7,220.2,648.4,245.6,654.3z"/>
<path class="st26" d="M207.3,645l24.3,12.5c1.8,0.9,3.7,1.7,5.6,2.2c39.4,10.9,41.2-5.5,41.2-5.5c2.5-11.9-16-17.7-16-17.7
	c-20.3-1-16.9,17.7-16.9,17.7c-25.4-5.8-39.7-19.5-39.7-19.5c-0.9,1.6-1.5,3.3-1.6,5.1C204.2,642,205.4,644.1,207.3,645z"/>
<path class="st19" d="M245.6,654.3c-0.1-0.9-0.2-1.8-0.2-2.8c0,0,25.2,7.2,30.8-4.5c0,0-0.6,9.3-14.1,9.5
	C256.5,656.4,251,655.6,245.6,654.3z"/>
<path class="st19" d="M223.2,610.6c0.8,3,3,10.8,5,14.2l0,0l0.3,0.4c8.4,11.5,21.9,14.3,21.9,14.3l0,0l0.3-0.2l0.3-0.2
	c5.1-3.6,11.6-2.6,11.6-2.6l0,0c-0.8-0.3-26.9-10-26.3-27.8c0-0.6-0.4-1.1-1.1-1.2c-0.1,0-0.1,0-0.2,0l-10.8,1.6
	c-0.6,0.1-1,0.7-0.9,1.3C223.1,610.5,223.1,610.5,223.2,610.6z"/>
<path class="st22" d="M177.7,313.1c-1.2-1.9-3.6-2.8-5.7-2.8c-1.4,0-2.8,0.3-4.2,0.8c-0.5,0.2-1,0.4-1.4,0.6c0.5-0.1,1-0.3,1.5-0.4
	C171.2,310.5,175.3,310.3,177.7,313.1L177.7,313.1z"/>
</svg>
