<?xml version="1.0" encoding="utf-8"?>
<!-- Generator: Adobe Illustrator 23.0.3, SVG Export Plug-In . SVG Version: 6.00 Build 0)  -->
<svg version="1.1" id="ab8fc4ca-c8d8-495c-8f75-143fc6a1c15f"
	 xmlns="http://www.w3.org/2000/svg" xmlns:xlink="http://www.w3.org/1999/xlink" x="0px" y="0px" viewBox="0 0 865.8 682.9"
	 style="enable-background:new 0 0 865.8 682.9;" xml:space="preserve">
<style type="text/css">
	.st0{fill:#180B12;}
	.st1{fill:#EBEBEB;}
	.st2{fill:#110C17;}
	.st3{fill:#3D3014;}
	.st4{fill:#F5F5F5;}
	.st5{fill:#E0E0E0;}
	.st6{fill:#0096C0;}
	.st7{fill:#CAE3AE;}
	.st8{fill:#186031;}
	.st9{fill:#21753A;}
	.st10{fill:#CEE3A5;}
	.st11{fill:#C4E0A3;}
	.st12{fill:#E6E6E6;}
	.st13{fill:#F0F0F0;}
	.st14{fill:#FAFAFA;}
	.st15{fill:#FEDD60;}
	.st16{fill:#D41F2B;}
	.st17{fill:#8FD8F8;}
	.st18{fill:#3953A5;}
	.st19{fill:#F9B499;}
	.st20{fill:#050406;}
	.st21{fill:#F7A48B;}
	.st22{fill:#063E7F;}
	.st23{opacity:0.6;fill:#FFFFFF;enable-background:new    ;}
	.st24{opacity:0.5;}
	.st25{fill:#FFFFFF;}
	.st26{opacity:0.5;fill:#FFFFFF;enable-background:new    ;}
	.st27{opacity:0.3;fill:#231F20;enable-background:new    ;}
	.st28{fill:#BCBEC0;}
	.st29{fill:#D1D3D4;}
	.st30{fill:#0F0C17;}
	.st31{opacity:0.33;fill:#FFFFFF;enable-background:new    ;}
	.st32{fill:#939598;}
	.st33{opacity:0.3;fill:#231F20;stroke:#150C18;stroke-miterlimit:10;enable-background:new    ;}
	.st34{opacity:0.2;enable-background:new    ;}
	.st35{opacity:0.3;fill:#FFFFFF;enable-background:new    ;}
	.st36{fill:#120B17;}
	.st37{fill:#A7A9AC;}
	.st38{fill:#180C14;stroke:#BCBEC0;stroke-width:0.5;stroke-miterlimit:10;}
	.st39{fill:#231F20;stroke:#BCBEC0;stroke-width:0.5;stroke-miterlimit:10;}
	.st40{fill:#130B17;stroke:#BCBEC0;stroke-width:0.5;stroke-miterlimit:10;}
	.st41{fill:#0D0C17;stroke:#0D0C17;stroke-width:0.5;stroke-miterlimit:10;}
	.st42{fill:none;stroke:#BCBEC0;stroke-width:0.5;stroke-miterlimit:10;}
	.st43{fill:#0B0D17;stroke:#BCBEC0;stroke-width:0.5;stroke-miterlimit:10;}
	.st44{fill:#120C17;stroke:#BCBEC0;stroke-width:0.5;stroke-miterlimit:10;}
	.st45{opacity:0.3;fill:#0D0C17;enable-background:new    ;}
</style>
<g id="fb3a5b01-1684-4d93-b7a1-22f0864d29d6">
	<rect x="4.3" y="595.1" class="st0" width="857.1" height="0.4"/>
	<rect x="718.8" y="622.7" class="st1" width="56.8" height="0.4"/>
	<rect x="557.2" y="627.3" class="st1" width="14.9" height="0.4"/>
	<rect x="684.2" y="606.8" class="st1" width="32.9" height="0.4"/>
	<rect x="94.3" y="609.7" class="st1" width="74" height="0.4"/>
	<rect x="183.6" y="609.7" class="st1" width="10.9" height="0.4"/>
	<rect x="229.7" y="616.9" class="st1" width="160.6" height="0.4"/>
	<path class="st1" d="M410.6,518.7h-331c-5.4,0-9.8-4.4-9.8-9.8V43.6c0.1-5.4,4.4-9.7,9.8-9.7h331c5.4,0,9.8,4.4,9.8,9.8
		c0,0,0,0,0,0l0,0v465.2C420.4,514.3,416,518.7,410.6,518.7C410.6,518.7,410.6,518.7,410.6,518.7z M79.6,34.2
		c-5.2,0-9.3,4.2-9.3,9.4v465.3c0,5.2,4.2,9.4,9.3,9.4h331c5.2,0,9.3-4.2,9.4-9.4V43.6c0-5.2-4.2-9.3-9.4-9.4H79.6z"/>
	<path class="st2" d="M781.4,518.7h-331c-5.4,0-9.8-4.4-9.8-9.8V43.6c0.1-5.4,4.4-9.7,9.8-9.7h331c5.4,0,9.7,4.3,9.8,9.7v465.3
		C791.2,514.3,786.8,518.6,781.4,518.7z M450.4,34.2c-5.2,0-9.4,4.2-9.4,9.4v465.3c0,5.2,4.2,9.3,9.4,9.4h331c5.2,0,9.4-4.2,9.4-9.4
		V43.6c0-5.2-4.2-9.3-9.4-9.4L450.4,34.2z"/>
	<rect x="133.6" y="136.4" class="st3" width="193.5" height="456.7"/>
	<rect x="148.9" y="163.9" class="st4" width="39.8" height="191.7"/>
	<path class="st5" d="M168.3,392.1c0,5.4-4.3,9.7-9.7,9.7c-5.4,0-9.7-4.3-9.7-9.7c0-5.4,4.3-9.7,9.6-9.7l0,0
		C163.9,382.5,168.3,386.8,168.3,392.1C168.3,392.1,168.3,392.1,168.3,392.1z"/>
	<rect x="190" y="95.5" class="st6" width="80.6" height="27.4"/>
	<polygon class="st7" points="450.3,492.4 440,492.4 440,383.8 735.6,383.8 735.6,490.2 725.3,490.2 725.3,394.1 450.3,394.1 	"/>
	<rect x="445.1" y="439.4" class="st4" width="285.3" height="10.3"/>
	<path class="st8" d="M452.6,388.9h270.5c4.1,0,7.4,3.3,7.4,7.4v40.8c0,4.1-3.3,7.4-7.4,7.4H452.6c-4.1,0-7.4-3.3-7.4-7.4v-40.8
		C445.1,392.2,448.5,388.9,452.6,388.9z"/>
	<path class="st9" d="M397.1,475.1h324.8c4.7,0,8.6,3.8,8.6,8.6v8.1H388.5v-8.1C388.5,478.9,392.4,475.1,397.1,475.1
		C397.1,475.1,397.1,475.1,397.1,475.1L397.1,475.1z"/>
	<polygon class="st10" points="393.7,595.3 383.4,595.3 383.4,486.7 679,486.7 679,593.1 668.7,593.1 668.7,497 393.7,497 	"/>
	<polygon class="st11" points="450.3,595.3 440,595.3 440,486.7 735.6,486.7 735.6,593.1 725.3,593.1 725.3,497 450.3,497 	"/>
	<rect x="596.6" y="142.1" class="st12" width="120.5" height="153.1"/>
	<rect x="599.4" y="144.8" class="st13" width="115" height="147.6"/>
	<path class="st14" d="M629,214c4.5,4.9,5.6-4.9,5.6-4.9l12.8-21.6l2.8,22.3l-9.6,68.9c0,0-8.8,2.6-9.3,4.1s15,1.9,16.7,0
		s-1.7-4.1-1.7-4.1l12-57l0.2,0.9l11.9,56c0,0-3.3,2.2-1.7,4.1s17.3,1.5,16.7,0s-9.3-4.1-9.3-4.1l-9.6-68.9l2.8-22.3l12.8,21.6
		c0,0,1.1,9.8,5.6,4.9s-3.3-9.4-3.3-9.4l-13.9-24l-7.7-2.6l-1.7-2.1c0,0,9.8-17.6-2.5-17.9h-0.4c-12.3,0.3-2.6,17.9-2.6,17.9
		l-1.7,2.1l-7.6,2.6l-13.8,24C632.2,204.6,624.5,209.1,629,214z"/>
	<path class="st15" d="M658.5,157.9v64.7l11.9,56c0,0-3.3,2.2-1.7,4.1s17.3,1.5,16.7,0s-9.3-4.1-9.3-4.1l-9.6-68.9l2.7-22.3
		l12.8,21.7c0,0,1.1,9.8,5.6,4.9s-3.3-9.4-3.3-9.4l-13.9-24l-7.6-2.6l-1.7-2.1C660.9,175.9,670.8,158.2,658.5,157.9z"/>
	<rect x="617.1" y="162" class="st12" width="15.9" height="6.2"/>
	<rect x="611.7" y="189.9" class="st12" width="15.9" height="6.2"/>
	<rect x="687.3" y="219.2" class="st12" width="15.9" height="6.2"/>
	<rect x="680.9" y="161.8" class="st12" width="15.9" height="6.2"/>
	<rect x="617.1" y="229.5" class="st12" width="15.9" height="6.2"/>
	<rect x="682.9" y="253.2" class="st12" width="15.9" height="6.2"/>
	<rect x="609.1" y="259.4" class="st12" width="15.9" height="6.2"/>
	<rect x="461.4" y="141.3" class="st12" width="116.4" height="154.5"/>
	<rect x="464.1" y="144.1" class="st16" width="110.9" height="149.1"/>
	<rect x="464.1" y="144.1" class="st17" width="110.9" height="37"/>
	<rect x="464.1" y="215.4" class="st18" width="110.9" height="40.7"/>
	<path class="st4" d="M474.5,161c0,6.2,5,11.2,11.2,11.2c6.2,0,11.2-5,11.2-11.2c0-6.2-5-11.2-11.2-11.2l0,0
		C479.6,149.8,474.6,154.8,474.5,161C474.5,161,474.5,161,474.5,161L474.5,161z"/>
	<circle class="st14" cx="558" cy="198" r="11.2"/>
	<path class="st4" d="M473.2,237.6c0,6.2,5,11.2,11.2,11.2c6.2,0,11.2-5,11.2-11.2s-5-11.2-11.2-11.2c0,0,0,0,0,0l0,0
		C478.2,226.4,473.2,231.4,473.2,237.6z"/>
	<circle class="st14" cx="556.6" cy="274.7" r="11.2"/>
</g>
<polygon class="st19" points="324.5,621.6 345.8,619.3 357.5,627.2 350,635.5 325,635.1 319.2,623.3 "/>
<path class="st20" d="M313.2,620.7c0,0-5.5,20.4,12,20.9c0,0,42.4,3.3,57.6-1.2l-25.3-13.2c0,0-28.6,3.5-33-5.6L313.2,620.7z"/>
<path class="st19" d="M247.6,589.8l3.7,8.2c-23.1-2.4-38.7-30.5-38.7-30.5l7.1-15.6l7.1-1l27.2,29.9L247.6,589.8z"/>
<path class="st20" d="M258.3,628.1c-15.2-5.1-50.3-41-50.3-41c-6.1-8.9,4.7-19.7,4.7-19.7s15.6,28.2,38.7,30.5l5.9,17
	C260.9,628.4,258.3,628.1,258.3,628.1z"/>
<polygon class="st21" points="219.8,551.8 217.1,557.2 247.6,589.8 254.1,580.6 226.9,550.7 "/>
<path class="st22" d="M338,339.5c0,0,5.4,21.4,9.9,64.9c-0.4,16.1-2.7,32-6.9,47.5L256.1,585L211,548.7L282,438l32.3-93.4L338,339.5
	z"/>
<path class="st23" d="M338,339.5c0,0,5.4,21.4,9.9,64.9c-0.4,16.1-2.7,32-6.9,47.5L256.1,585L211,548.7L282,438l32.3-93.4L338,339.5
	z"/>
<g class="st24">
	
		<rect x="203.5" y="514.2" transform="matrix(0.5448 -0.8386 0.8386 0.5448 -313.0889 452.6778)" class="st25" width="113.8" height="1.1"/>
</g>
<path class="st22" d="M264.2,323.3c0,0-18.1,23.3-12,51.6c0,0,10,41.3,23.1,75.4c0,0,17,46.2,17,81.2l9.7,93.3l67.5-4.9
	c0,0-6.8-121.8-25.4-169.7c-2.5-6.5-4.4-13.1-5.7-19.9c-4.3-21.8-12.6-65.3-14.6-81.4l-13.6-11.3l-39.2-17L264.2,323.3z"/>
<path class="st26" d="M264.2,323.3c0,0-18.1,23.3-12,51.6c0,0,10,41.3,23.1,75.4c0,0,17,46.2,17,81.2l9.7,93.3l67.5-4.9
	c0,0-6.8-121.8-25.4-169.7c-2.5-6.5-4.4-13.1-5.7-19.9c-4.3-21.8-12.6-65.3-14.6-81.4l-13.6-11.3l-39.2-17L264.2,323.3z"/>
<g class="st24">
	<path class="st25" d="M321.9,620.8c-0.6-49.8-18.6-160.5-18.8-161.6c-6-34.8-30.1-100.8-30.4-101.4l1-0.4
		c0.2,0.7,24.4,66.7,30.4,101.6c0.2,1.1,18.3,111.9,18.9,161.8L321.9,620.8z"/>
</g>
<path class="st19" d="M405.1,349.9c-1.9,5.2-2.9,17.6-2.9,17.6H385c-9.3-10.3-22.5-30.2-22.5-30.2l15.2-4.1l10.2-2.8l2.3,2.9
	L405.1,349.9z"/>
<path class="st21" d="M402.2,366v1.5H385c-9.3-10.3-22.5-30.2-22.5-30.2l15.2-4.1c-0.7,6.9,2,13.7,7.1,18.4L402.2,366z"/>
<path class="st20" d="M364.4,179.1l-4.3,5l-12.5,14.5c0,0-7,19.1-5.2,32.5l-2.4,5.8c0,0-25.5-2.8-42.6,11.6l0,0
	c-0.4-0.7-13-22.4,23.4-35.9c0,0,9.1-0.9,2.4-11.6c0,0-8.4-12,2.6-23.4c3.9-4,9-6.7,14.5-7.6C348.1,168.6,360,168.4,364.4,179.1z"/>
<path class="st27" d="M347.6,198.6c0,0-7,19.1-5.2,32.5l-2.4,5.8c0,0-27.4-2.6-42.6,11.6l0,0c-0.2-0.7-4.1-19,18.5-25.8
	c0,0,25.8-4.3,17-20.7c0,0-13.7-18.2,4.9-24c0,0,18.4-4.4,22.2,6.2L347.6,198.6z"/>
<path class="st28" d="M349.2,374.5h69.5l0,0v11.2l0,0H353c-2.1,0-3.8-1.7-3.8-3.8L349.2,374.5L349.2,374.5z"/>
<path class="st29" d="M339,367.4h79.9l0,0v11.2l0,0H339c-2.9,0-5.3-2.4-5.3-5.3l0,0v-0.7C333.8,369.8,336.1,367.4,339,367.4z"/>
<path class="st30" d="M481.4,424.4c-59.3,0-107.3,47.7-107.3,106.5s48,106.5,107.3,106.5S588.7,589.8,588.7,531
	S540.6,424.4,481.4,424.4z M482.3,622c-50.7,0-91.8-41.1-91.8-91.8s41.1-91.8,91.8-91.8s91.8,41.1,91.8,91.8c0,0,0,0,0,0
	C574.1,580.9,533,622,482.3,622L482.3,622z"/>
<path class="st28" d="M482.3,438.4c-51.2,0-92.7,41.3-92.7,92.2s41.5,92.2,92.7,92.2s92.7-41.3,92.7-92.2S533.5,438.4,482.3,438.4z
	 M481.3,616.6c-47.7,0-86.3-38.7-86.3-86.3c0-47.7,38.7-86.3,86.3-86.3c47.7,0,86.3,38.7,86.3,86.3C567.6,578,529,616.7,481.3,616.6
	C481.3,616.6,481.3,616.6,481.3,616.6z"/>
<ellipse class="st31" cx="481.4" cy="530.3" rx="86.4" ry="86.2"/>
<circle class="st32" cx="621" cy="601" r="27"/>
<ellipse class="st27" cx="618.1" cy="601" rx="19.1" ry="20.1"/>
<circle class="st33" cx="617.3" cy="600.7" r="12"/>
<path class="st29" d="M642.5,521l0.3,69.7l-9.2-0.2v-65.9c0-1.2-1-2.2-2.2-2.2c0,0,0,0,0,0h-16.6l2.9-5.6l1.5-3h16.1
	C639.3,513.7,642.5,517,642.5,521C642.5,521,642.5,521,642.5,521z"/>
<path class="st28" d="M637.4,520.5v69.9h-3.8v-65.9c0-1.2-1-2.2-2.2-2.2c0,0,0,0,0,0h-16.6l2.9-5.6h15.9
	C635.7,516.7,637.4,518.4,637.4,520.5z"/>
<polygon class="st28" points="643.9,590.7 566.3,602.5 570.5,617.8 645.3,602.5 "/>
<polygon class="st29" points="615,589.6 643.9,590.7 566.3,602.5 563.9,597.6 "/>
<polygon class="st19" points="606.3,577.5 601.8,571.2 587.2,569.8 553.4,587.2 553.4,590.3 563.9,597.6 589.3,592.8 "/>
<rect x="519.5" y="417.1" class="st22" width="83.3" height="48.5"/>
<path class="st22" d="M623.1,589.6L623.1,589.6l-64.8,10.4l-10.8-2.1l-1.7-5.9l7.7-1.7c0,0,20.9,7,22.6,0.7c0,0,0.4-9,6.4-10.3
	c2.1-0.3,4.3,0,6.2,1c1.3,0.5,2.7,0.8,4.2,0.8c2.5,0.1,4.8-1.5,5.6-3.9c0,0,3.5-7,8-1c0,0,7.7,5.6,17,5.9l0,0
	c0.5,0.2,4.1,1.6,4.6,3.1c0,0,0,0.1,0,0.2C628.2,587.7,627,588.8,623.1,589.6z"/>
<path class="st20" d="M613.3,535.7c-8,16.7-11.5,35.5-11.5,35.5c-3.3-0.4-9.9,2.5-14.2,4.7c-2.5,1.3-4.2,2.3-4.2,2.3l-55,24.7
	c-9.4-10.8-10.1-63.7-10.1-63.7l-90.1-63.3v-17.4l70.3-25l34.8-2.6c22.9-0.4,45.7,3.1,67.5,10.3
	C652.2,459.9,613.3,535.7,613.3,535.7z"/>
<path class="st27" d="M587.5,575.9c-2.5,1.3-4.2,2.3-4.2,2.3l-55,24.7c-9.4-10.8-10.1-63.7-10.1-63.7l4.9-5.6l2.4,9.8l3.1,32
	c2.1,15.7,54.6-2.1,54.6-2.1c-2-67.9-9.9-96.1-13.9-106.3c-1.3-3.3-3.9-5.9-7.1-7.3c-14.3-6.2-48.1-16.9-50.2-17.5l34.3,8.3
	c37.2,7,41.1,26.4,41.1,26.4C596.7,494.9,588,571.8,587.5,575.9z"/>
<path class="st27" d="M623.1,589.6L623.1,589.6l-18.2,2.4c-0.3-3.8-6.3-2.8-6.3-2.8c-7.8-1.3-15.3-7.8-16.3-8.6c2.1-0.3,4.3,0,6.2,1
	c1.3,0.5,2.7,0.8,4.2,0.8v0.3c4.1,2.1,8.4,3.9,12.9,5.2c10.8,4.2,17.7-4.5,17.7-4.5l0,0c3,1.3,4.3,2.3,4.6,3.1c0,0,0,0.1,0,0.2
	c0,0.1,0,0.1,0,0.2C628.1,588.7,623.6,589.5,623.1,589.6z"/>
<path class="st29" d="M621.5,415.4v5.1H512.2v-12.7h101.7C618.1,407.8,621.5,411.2,621.5,415.4C621.5,415.4,621.5,415.4,621.5,415.4
	z"/>
<path class="st28" d="M621.5,415.4v5.1H512.7l-0.5-2.8l4.1-1.3h96.8c6.4,0,0.5-8.7,0.5-8.7C617.9,407.7,621.4,411.1,621.5,415.4
	C621.5,415.4,621.5,415.4,621.5,415.4z"/>
<path class="st22" d="M513.7,418.6l-3.4,12.8l0,0c0.1,0.4,2.1,8.2-4.3,8.9c-6.6,0.7-12.3,1.4-12.3,1.4
	c-21.9,4.3-57.2,16.6-57.2,16.6c-7.3,5-10.5,1.6-10.5,1.6c-2.8-2.1-5.1-4.7-6.9-7.7c-8-12.3-13.6-32.5-13.6-32.5
	c-11-28.9-0.2-70.9-0.2-70.9c4.6-22.3,40.4-26.8,40.4-26.8l14.6,14.4L477,332l12.6-6c30.5,7.3,35.6,53.1,35.6,53.1l33.3-0.9
	l5.5,22.1C541.8,416.3,513.7,418.6,513.7,418.6z"/>
<path class="st34" d="M506,440.2c-6.6,0.7-12.3,1.4-12.3,1.4c-21.9,4.3-57.2,16.6-57.2,16.6c-7.3,5-10.5,1.6-10.5,1.6
	c-2.8-2.1-5.1-4.7-6.9-7.7l34.3-8c0,0,27.4-10,31.6-11.5l25.3-1.3l0,0C510.4,431.8,512.4,439.6,506,440.2z"/>
<path class="st19" d="M456.8,308l-0.2,10.3c0,0-4.9,0.1-4.3,3.4c0,0,2.3,10.9,17.8,9.7c0,0,14.1,0,10.9-11.7l-0.1-7
	c0,0-6.4,2.1-11.3-2.3L456.8,308z"/>
<path class="st21" d="M456.8,308l-0.2,10.3c0,0,12.2-0.5,16-6c-1.1-0.4-2.1-1-3-1.8L456.8,308z"/>
<ellipse transform="matrix(0.1956 -0.9807 0.9807 0.1956 94.1604 685.1417)" class="st19" cx="464.7" cy="285.2" rx="26.9" ry="21.1"/>
<path class="st20" d="M498.5,318.5c-6.7,8.1-16.3,1.8-16.3,1.8c2.4-0.6,3.8-3.7,3.8-3.7l-5.6,0.8l0.3-4.6c-1.8,0.5-3.7,0.7-5.6,0.3
	c-1.9-0.3-3.7-1.1-5.2-2.3c-0.1-0.1-0.3-0.2-0.5-0.4c14.3-5.9,12-24.3,12-24.3c-6.7,0.8-8.4-7.7-8.4-7.7c-0.6,2-0.8,4-0.5,6.1
	c-10.2-1.1-11.7-12.2-11.7-12.2c-1,1.1-1.6,2.5-1.5,4c-1.9-4-5.1-7.2-9-9.3c-1.9,2.5-3.5,5.2-4.7,8.1l-0.1,0.3
	c-1.5,3.7-2.2,7.6-2.3,11.5c0,0.9,0,1.7,0,2.5c0,0.6,0.1,1.2,0.1,1.8c0,0.4,0.1,0.7,0.1,1c0.1,0.6,0.2,1.2,0.3,1.8s0.2,0.8,0.3,1.2
	c0.3,1.5,0.8,3,1.5,4.4c0.6,1.3,1.2,2.6,2,3.8c0.2,0.3,0.4,0.5,0.5,0.8c0.1,0.1,0.1,0.2,0.2,0.3c1.2,1.6,2.5,2.9,4.1,4.1
	c0.1,0.1,0.3,0.2,0.4,0.3c1.2,0.9,2.6,1.5,4,2v0.1l-0.5,7.4c-12.1,3.6-16.2-5.9-16.2-5.9c-0.8,2.8,0.2,4.3,0.2,4.3
	c-16.3-5.6-2.1-24.6-2.1-24.6c2.6-5,3-20.2,3-20.2c-1.1-14.4,21.4-17.9,21.4-17.9c1.6-0.4,3.1-0.7,4.5-0.9l0,0
	c15.1-2.3,19.5,5,19.5,5c13.2,0.1,16.1,10,16.1,18.6c-0.1,4.3-0.7,8.6-1.8,12.8C507.1,306.2,498.5,318.5,498.5,318.5z"/>
<path class="st27" d="M440.5,316.7c0,0-7.6-4.1-3-15.2l5.9-10.9c0,0,0.1,5.8,2.3,9.1c0,0-4.3,3.8-5.3,12.7
	C439.9,313.8,440,315.3,440.5,316.7z"/>
<path class="st27" d="M456.5,318.3l0.5-7.5c0,0-7.1-1.5-11.3-11.1c0,0-1.4,16.4,7.9,19.3L456.5,318.3z"/>
<path class="st27" d="M480.8,312.7c5.8-1.9,10.2-6.6,11.7-12.5c0.5,6.1-1.8,12.1-6.4,16.3l-5.6,0.8L480.8,312.7z"/>
<path class="st27" d="M483.7,287.4c0,0,4.7,18.2-8.5,25.7l-0.2,0.1c0,0-2.1,0-5-2.4c-0.1-0.1-0.3-0.2-0.5-0.4
	c14.3-5.9,12-24.3,12-24.3c-6.7,0.8-8.4-7.7-8.4-7.7c-0.6,2-0.8,4-0.5,6.1c-10.2-1.1-11.7-12.2-11.7-12.2c-1,1.1-1.6,2.5-1.5,4
	c-1.9-4-5.1-7.2-9-9.3c0,0,4.7-1.7,8.4,3.5c0.4-1.7,1.2-3.3,2.3-4.7c0,0,1.5,10.8,7.7,12.5c0,0,0.3-5.6,2.1-8.2
	c0,0,1.7,14.1,21.4,11.4C492.5,281.4,491.1,285.2,483.7,287.4z"/>
<path class="st27" d="M470.9,258.9c0,0,7.3,5.8,6.1,10.5c0,0,7-2.3,13.4,1.1c0,0-1.5-4.4-11.1-4
	C478.6,266.6,479.1,260.5,470.9,258.9z"/>
<path class="st27" d="M502.9,276.6c-6.1-17.6-19.1-14.4-19.1-14.4c-3.7-5.5-9.8-8.9-16.4-9.3l0,0c15.1-2.3,19.5,5,19.5,5
	C500,258.1,502.9,268,502.9,276.6z"/>
<path class="st22" d="M448.3,318.7c0,0-7.1,3.8-2.7,9.7c0,0,12,16.9,34.5,8.5c0,0,13.6-6.6,8.4-14.4c0,0-5.3-0.8-7.4-3.5v0.8
	c0,0,4.6,12.9-15.4,11.6c0,0-8.3,0.1-12.4-7.3c0,0-2.3-3.4,0.3-5V319C451.7,319.2,449.9,319.1,448.3,318.7z"/>
<path class="st35" d="M448.3,318.7c0,0-7.1,3.8-2.7,9.7c0,0,12,16.9,34.5,8.5c0,0,13.6-6.6,8.4-14.4c0,0-5.3-0.8-7.4-3.5v0.8
	c0,0,4.6,12.9-15.4,11.6c0,0-8.3,0.1-12.4-7.3c0,0-2.3-3.4,0.3-5V319C451.7,319.2,449.9,319.1,448.3,318.7z"/>
<path class="st34" d="M450.4,362.3c2.8-0.3,5.6-0.5,8.4-0.4c3.6,0.1,7.2,1,10.4,2.9c2.8,1.7,9.7,3.8,19.1-6.3h-26.9
	C461.3,358.4,451.7,357.7,450.4,362.3z"/>
<path class="st34" d="M502.1,360.7c0,0,8.9,8.9,7.1,21.6c0,0-5.2,29.9,4.6,36.3c0,0,29-2.5,50.2-18.2l-3.2-11.6
	c0,0-1.4,10.7-14.8,15.3c0,0-28.5,15.7-31.2,1.4c0,0-3.1-4.8-2.3-14.4c0.1-1.5,0.4-3,0.8-4.4C514.5,381.6,517.2,366.9,502.1,360.7z"
	/>
<path class="st19" d="M585.9,383c-0.1,0-0.1,0.1,0,0.2c0,0,0.1,0.1,0.1,0.1c1.6,0.1,6.8,0.6,0.9,4.3c-1.7,0.7-3.3,1.5-4.9,2.4
	c-0.9,0.5-1.9,1.1-2.9,1.8c-0.8,0.6-1.4,1.3-1.9,2.1c-1.2,2.1-4.7,6.6-13.4,6.5l-5.5-22.1c0,0,4.4-4.4,8-6c1.3-0.6,2.4-1.6,3-2.9
	c1.2-2.7,2.6-5.2,4.2-7.6c1.7-2.5,3.8-4.7,6-5.3c0,0,3,0.2-3.1,14l-0.2,0.4c-0.1,0.2,0,0.3,0.2,0.4c0.1,0,0.2,0,0.3,0
	c0.8-0.7,2.1-1.7,3.5-2.8c3.5-2.6,8.1-5.4,9.6-3.6c0,0,2.1,2.4-5,10c-0.1,0.1,0,0.3,0.2,0.2c1.7-1.1,3.7-1.8,5.7-2
	c1-0.1,2,0.4,2.5,1.2C593.3,374.2,595.7,376.1,585.9,383z"/>
<path class="st21" d="M568.8,371.6c0,0,2.4-1.6,4.1-1.2c0.6,0.2,1,0.9,0.8,1.5c0,0.1-0.1,0.2-0.1,0.3c-0.7,1.1-1.6,2.1-2.7,2.9
	c-0.2,0.2-0.3,0.4-0.3,0.7c0.2,2.1,0.9,12-4,15.7c0,0,6.5,0,5.9-15c0-0.2,0.1-0.5,0.3-0.6c0.9-0.7,3.3-3,2.8-5.4
	c-0.2-0.9-1-1.6-2-1.6C572.4,368.7,570.6,369.2,568.8,371.6z"/>
<path class="st21" d="M576.5,370.4l-0.1,0.1c1.5-4,2.8-8.8,1.7-10.6c-0.9-1.4-3.4,0.8-4.5,1.8c1.7-2.5,3.8-4.7,6-5.3
	C579.6,356.3,582.6,356.6,576.5,370.4z"/>
<path class="st21" d="M584.9,374.8c4.7-7.1,3.3-8.3,3.3-8.3c-0.9-1.2-6.7,1.3-7.9,1.8c3.5-2.6,8.1-5.4,9.6-3.6
	C589.9,364.8,592,367.1,584.9,374.8z"/>
<path class="st21" d="M585.9,383l4.5-5.6c1.2-1.2,1.3-3.1,0.3-4.5c1-0.1,2,0.4,2.5,1.2C593.3,374.2,595.7,376.1,585.9,383z"/>
<path class="st21" d="M582.1,389.9c-1,0.6-1.9,1.2-2.8,1.8c-0.8,0.5-1.4,1.3-1.9,2.1c-1.1,2-4.4,6.4-12.6,6.5c-0.1,0-0.1,0-0.1-0.1
	c0-0.1,0-0.1,0.1-0.1c1.6-0.5,5.4-1.9,7-4c0.6-0.7,1.2-1.4,2-2C575.6,392.5,579.1,390,582.1,389.9z"/>
<path class="st19" d="M492.8,401.3c0,0,20.6,1.4,22.2,19l-24.3-0.2l1.1-5.3l-0.2-11.3L492.8,401.3z"/>
<path class="st21" d="M511.4,420.1c0,0-3.1-8.6-18.3-14.1h-1.5c0,0,0.2,8.8-0.9,14.1H511.4z"/>
<rect x="417" y="471" class="st22" width="110.8" height="68.6"/>
<path class="st22" d="M393.3,332.8l-35,6l-0.3-2.4l-17.9,6.5l-16.3,5.9c-19-1.1-59.6-25.5-59.6-25.5c1.4-9.3,6.7-23.1,12-35.8
	C283,271.7,290,258,290,258c12.7-24.4,50-21.1,50-21.1l36.1,14c9.8,5.7,9.5,23.6,9.5,23.6L393.3,332.8z"/>
<path class="st26" d="M393.3,332.8l-35,6l-0.3-2.4l-17.9,6.5l-16.3,5.9c-19-1.1-59.6-25.5-59.6-25.5c1.4-9.3,6.7-23.1,12-35.8
	C283,271.7,290,258,290,258c12.7-24.4,50-21.1,50-21.1l36.1,14c9.8,5.7,9.5,23.6,9.5,23.6L393.3,332.8z"/>
<path class="st23" d="M340.1,342.9l-16.3,5.9c-19-1.1-59.6-25.5-59.6-25.5c1.4-9.3,6.7-23.1,12-35.8l0.1,0.1c0,0-8.4,35,29.2,42.6
	L340.1,342.9z"/>
<g class="st24">
	<path class="st25" d="M257.5,366l-0.3-1c0.2-0.1,24.1-6.9,31.3-28.2l1,0.3C282.2,359,257.8,365.9,257.5,366z"/>
</g>
<path class="st22" d="M434.2,363c0,0,0.9,24.4-1.9,32.6c-0.1,0.3-0.3,0.5-0.5,0.8c-1.3,1.5-6.2,7.8-0.2,10.6c0,0,5,3,17.5-1.8
	c0,0,42-6.7,41.6,14.5c0,0,7.9-6.1,2-21.1c0,0-0.2-6.2-17.1-4.3l-35.7,0.6c-1.3,0-2.5-1-2.5-2.4c0,0,0-0.1,0-0.1
	C437.7,386.2,437.8,370.7,434.2,363z"/>
<path class="st34" d="M434.2,363c0,0,0.9,24.4-1.9,32.6c-0.1,0.3-0.3,0.5-0.5,0.8c-1.3,1.5-6.2,7.8-0.2,10.6c0,0,5,3,17.5-1.8
	c0,0,42-6.7,41.6,14.5c0,0,7.9-6.1,2-21.1c0,0-0.2-6.2-17.1-4.3l-35.7,0.6c-1.3,0-2.5-1-2.5-2.4c0,0,0-0.1,0-0.1
	C437.7,386.2,437.8,370.7,434.2,363z"/>
<path class="st36" d="M411.5,434.1c-59.3,0-107.3,47.7-107.3,106.5s48,106.5,107.3,106.5s107.3-47.7,107.3-106.5
	S470.7,434.1,411.5,434.1z M412.4,631.7c-50.7,0-91.8-41.1-91.8-91.8c0-50.7,41.1-91.8,91.8-91.8c50.7,0,91.8,41.1,91.8,91.8l0,0
	C504.2,590.6,463.1,631.7,412.4,631.7L412.4,631.7z"/>
<path class="st28" d="M412.4,448.1c-51.2,0-92.7,41.3-92.7,92.2s41.5,92.2,92.7,92.2s92.7-41.3,92.7-92.2S463.6,448.1,412.4,448.1z
	 M411.4,626.4c-47.7,0-86.3-38.7-86.2-86.3s38.7-86.3,86.3-86.2c47.6,0,86.2,38.7,86.2,86.3C497.7,587.7,459.1,626.4,411.4,626.4z"
	/>
<ellipse class="st31" cx="411.5" cy="540" rx="86.4" ry="86.2"/>
<ellipse class="st37" cx="412.2" cy="540.2" rx="12" ry="11.9"/>
<line class="st38" x1="429.8" y1="526.3" x2="459.9" y2="504.3"/>
<line class="st39" x1="427" y1="521.4" x2="435.5" y2="468.5"/>
<line class="st40" x1="404.6" y1="520.2" x2="382.3" y2="463.6"/>
<line class="st40" x1="347.3" y1="515.7" x2="396.9" y2="536.8"/>
<line class="st41" x1="426.6" y1="544.1" x2="486.8" y2="558.4"/>
<line class="st42" x1="357.5" y1="534.4" x2="396.9" y2="540.9"/>
<line class="st43" x1="343.2" y1="572.2" x2="401.4" y2="551.9"/>
<line class="st44" x1="422.1" y1="551.5" x2="458.7" y2="600.7"/>
<line class="st39" x1="411.9" y1="559.2" x2="413.6" y2="613.7"/>
<rect x="523.9" y="430.8" class="st29" width="9.3" height="181.9"/>
<path class="st29" d="M542.6,426.1v7.3H400.7v-7.3c0-3.4,2.7-6.1,6.1-6.1h129.6C539.9,419.9,542.6,422.7,542.6,426.1z"/>
<path class="st28" d="M542.6,426.1v7.3H400.7v-4.3h130c2.8,0,5.1-2.3,5-5.1c0-1.4-0.6-2.8-1.7-3.8l-0.3-0.3h2.7
	C539.9,420,542.6,422.7,542.6,426.1z"/>
<path class="st29" d="M568.5,519.8v94.4l-5.9-4l-3.4-2.3v-84.4c0-2.4-2-4.4-4.4-4.4c0,0,0,0,0,0h-25.5v-10.3h28.2
	C563.6,508.8,568.5,513.7,568.5,519.8C568.5,519.8,568.5,519.8,568.5,519.8z"/>
<path class="st28" d="M562.7,520v90.2l-3.4-2.3v-84.4c0-2.4-2-4.4-4.4-4.4h-25.5v-4.4h28C560.3,514.6,562.6,517,562.7,520
	C562.7,520,562.7,520,562.7,520z"/>
<circle class="st32" cx="546.5" cy="622" r="27"/>
<ellipse class="st27" cx="543.5" cy="622" rx="19.1" ry="20.1"/>
<circle class="st45" cx="542.8" cy="621.8" r="12"/>
<path class="st19" d="M368.5,249.5c-1.7,22-15.9,20-15.9,20c-8.5-1.7-12.3-11.7-13.9-19.9c-0.7-3.5-1.1-7.1-1.3-10.7l14.4-11.2
	L368.5,249.5z"/>
<path class="st21" d="M368.5,249.5c-1.7,22-15.9,20-15.9,20c-8.5-1.7-12.3-11.7-13.9-19.9c2,2.9,13.7,19.2,22.4,12
	c0,0,5.1-4.9-0.2-7.8c0,0-8.3-6.4-4.2-15.6L368.5,249.5z"/>
<ellipse class="st19" cx="374.3" cy="223.7" rx="22.7" ry="28.9"/>
<path class="st20" d="M406.8,216.6c-0.3,8.7-2.6,12.6-5,14.3c-1.7,1.2-3.8,1.5-5.8,0.9c0.6-2.2,0.9-4.5,0.9-6.7
	c-6.7-5.4-12-19-12-19c-4.2,5.1-9.7,8.9-15.9,11c-3,1.1-6.2,1.8-9.4,2l-10.2-1.2l0.7,12.5l-10,6.4h-6.6c-3.6-9.8,4.1-16.4,4.1-16.4
	c6.6-5,4.3-13.5,4.3-13.5c-3.4-19.4,13-16.4,13-16.4l42.6,2.7C405.9,198.2,406.8,216.6,406.8,216.6z"/>
<path class="st27" d="M347.6,214.1c0,0-0.9-11.2,5.9-16.9c-0.3,5.6,0.6,11.2,2.5,16.4L347.6,214.1z"/>
<path class="st27" d="M401.8,230.7v0.2c-1.7,1.2-3.8,1.5-5.8,0.9c0.6-2.2,0.9-4.5,0.9-6.7c-6.7-5.4-12-19-12-19
	c-4.2,5.1-9.7,8.9-15.9,11l-0.5-0.3c1.8-19.6-7.8-20.1-5-21.9c5.7-3.6,23.5-0.2,23.5-0.2C410.7,213.2,401.8,230.7,401.8,230.7z"/>
<ellipse class="st19" cx="352" cy="220.9" rx="7.8" ry="10.1"/>
<path class="st22" d="M398,193.6c-9.6,8.2-41.1,2.9-41.1,2.9l-4.2-12.1c-0.2-0.7,0.1-1.4,0.8-1.6c0,0,0.1,0,0.1,0
	c1.4-0.4,2.7-0.9,4-1.5c2.4-1.2,4.7-2.5,6.9-4c12.9-12,21.4-1.2,21.4-1.2c3.4,4.5,7.1,5.1,9.2,5c0.9,0,1.6,0.6,1.7,1.5l1.1,9.2
	L398,193.6z"/>
<path class="st34" d="M398,193.6c-9.6,8.2-41.1,2.9-41.1,2.9l-4.2-12.1c-0.2-0.7,0.1-1.4,0.8-1.6c0,0,0.1,0,0.1,0
	c1.4-0.4,2.7-0.9,4-1.5c1.1,4.6,5.4,15.8,22,13.8l18.2-3.3L398,193.6z"/>
<path class="st19" d="M413,316.1c-4.2,5.8-32.7,13.3-38.4,14.8c-0.6,0.2-1,0.3-1,0.3c-16.6,7.6-35,13.3-46.4,16.6
	c-6.9,2-11.4,3-11.4,3c-19.2,2.6-21-33.5-21-33.5l6-1.7l16.5-4.7l10.6-3l2,7.9c0.2,0.9,1,1.5,2,1.4l34.6-2.2c1.1-0.1,2.1-0.9,2.4-2
	c1.9-7.4,13.3-10.7,17.8-11.6c1.3-0.3,2.5-0.7,3.6-1.4c3.8-2.1,6.1-2.6,7.3-2.6c0.7,0,1.3,0.6,1.3,1.3c0,0.1,0,0.2,0,0.2
	c-0.9,5.2-7.5,8.2-7.5,8.2c-5.5,2.7-5,4-5,4c-0.5,0.7-0.4,1.3,0,1.7c1.6,1.5,8.5,0.8,8.5,0.8c4.8-0.4,9.5-0.3,14.3,0.2
	C414.3,314.6,413,316.1,413,316.1z"/>
<path class="st21" d="M327.4,347.5l-0.2,0.2c-6.9,2-11.4,3-11.4,3c-19.2,2.6-21-33.5-21-33.5l6-1.7c0.4,7.1,2.1,28.9,8.6,31.9
	C309.4,347.5,315.7,350.3,327.4,347.5z"/>
<path class="st21" d="M320.2,324.8c2.2-5.1-2-12.4-2.9-13.9l10.6-3l2,7.9c0.2,0.9,1,1.5,2,1.4l-11.1,8.1c-0.2,0.1-0.4,0.1-0.5-0.1
	C320.1,325.1,320.1,324.9,320.2,324.8z"/>
<path class="st21" d="M413,316.1c-4.2,5.8-32.7,13.3-38.4,14.8c0.5-1.6,2.1-4.1,7.4-5c0,0,22.9-4.7,27.1-12.1
	C414.3,314.6,413,316.1,413,316.1z"/>
<path class="st21" d="M398.9,299c-0.9,5.2-7.5,8.2-7.5,8.2c-5.5,2.7-5,4-5,4c-0.5,0.7-0.4,1.3,0,1.7c-6.5-2.6,2.9-7.8,6.4-9.6
	c1.3-0.6,2.4-1.5,3.3-2.6c0.8-0.9,1.4-2.1,1.5-3.3c0.7,0,1.3,0.6,1.3,1.4C398.9,298.9,398.9,298.9,398.9,299z"/>
<path class="st22" d="M291.1,318.2l-5.3-36.1c-0.3-2.2-0.3-4.4,0-6.6c0.6-5.2,2.8-10,6.2-14c0,0-1.3,20,2.1,31.4
	c0,0,4.1,19.4,13.6,17.2c0,0,16.7-2.8,17.2-8.1l-2.2-31.3l8,35.7c0.3,1.2-0.3,2.4-1.3,3c-3.6,2-13.6,6.4-36.3,10.1
	c-0.8,0.2-1.7-0.4-1.9-1.2C291.1,318.3,291.1,318.3,291.1,318.2z"/>
<path class="st23" d="M291.1,318.2l-5.3-36.1c-0.3-2.2-0.3-4.4,0-6.6c0.6-5.2,2.8-10,6.2-14c0,0-1.3,20,2.1,31.4
	c0,0,4.1,19.4,13.6,17.2c0,0,16.7-2.8,17.2-8.1l-2.2-31.3l8,35.7c0.3,1.2-0.3,2.4-1.3,3c-3.6,2-13.6,6.4-36.3,10.1
	c-0.8,0.2-1.7-0.4-1.9-1.2C291.1,318.3,291.1,318.3,291.1,318.2z"/>
</svg>
